G04 #@! TF.GenerationSoftware,KiCad,Pcbnew,(5.0.0-rc2-153-gb37969f58)*
G04 #@! TF.CreationDate,2018-07-17T10:53:47+02:00*
G04 #@! TF.ProjectId,wb001,77623030312E6B696361645F70636200,rev?*
G04 #@! TF.SameCoordinates,Original*
G04 #@! TF.FileFunction,Copper,L1,Top,Signal*
G04 #@! TF.FilePolarity,Positive*
%FSLAX46Y46*%
G04 Gerber Fmt 4.6, Leading zero omitted, Abs format (unit mm)*
G04 Created by KiCad (PCBNEW (5.0.0-rc2-153-gb37969f58)) date Tue Jul 17 10:53:47 2018*
%MOMM*%
%LPD*%
G01*
G04 APERTURE LIST*
G04 #@! TA.AperFunction,SMDPad,CuDef*
%ADD10R,0.760000X2.700000*%
G04 #@! TD*
G04 #@! TA.AperFunction,SMDPad,CuDef*
%ADD11R,1.000000X4.700000*%
G04 #@! TD*
G04 #@! TA.AperFunction,SMDPad,CuDef*
%ADD12R,1.000000X2.900000*%
G04 #@! TD*
G04 #@! TA.AperFunction,ViaPad*
%ADD13C,0.800000*%
G04 #@! TD*
G04 #@! TA.AperFunction,Conductor*
%ADD14C,0.250000*%
G04 #@! TD*
G04 #@! TA.AperFunction,Conductor*
%ADD15C,0.254000*%
G04 #@! TD*
G04 APERTURE END LIST*
D10*
G04 #@! TO.P,J101,1*
G04 #@! TO.N,GND*
X157500000Y-69150000D03*
D11*
G04 #@! TO.P,J101,2*
X155200000Y-70150000D03*
D12*
X155720000Y-69250000D03*
X159280000Y-69250000D03*
D11*
X159820000Y-70150000D03*
G04 #@! TD*
D13*
G04 #@! TO.N,GND*
X162000000Y-63030000D03*
X160500000Y-68000000D03*
X160500000Y-69000000D03*
X160500000Y-70000000D03*
X154500000Y-68000000D03*
X154500000Y-69000000D03*
X154500000Y-70000000D03*
X160500000Y-71000000D03*
X160500000Y-72000000D03*
X154500000Y-71000000D03*
X154500000Y-72000000D03*
G04 #@! TD*
D14*
G04 #@! TO.N,GND*
X157500000Y-69150000D02*
X157500000Y-67170000D01*
X160500000Y-68030000D02*
X159280000Y-69250000D01*
X160500000Y-68000000D02*
X160500000Y-68030000D01*
X159530000Y-69000000D02*
X159280000Y-69250000D01*
X160500000Y-69000000D02*
X159530000Y-69000000D01*
X160030000Y-70000000D02*
X159280000Y-69250000D01*
X160500000Y-70000000D02*
X160030000Y-70000000D01*
X154970000Y-70000000D02*
X155720000Y-69250000D01*
X154500000Y-70000000D02*
X154970000Y-70000000D01*
X155470000Y-69000000D02*
X155720000Y-69250000D01*
X154500000Y-69000000D02*
X155470000Y-69000000D01*
X154500000Y-68030000D02*
X155720000Y-69250000D01*
X154500000Y-68000000D02*
X154500000Y-68030000D01*
G04 #@! TD*
D15*
G04 #@! TO.N,GND*
G36*
X163236154Y-51167441D02*
X163327342Y-51205612D01*
X163440266Y-51293532D01*
X163590724Y-51496781D01*
X163827138Y-52108395D01*
X164010890Y-53135244D01*
X164094112Y-54183444D01*
X164123964Y-55523827D01*
X164111109Y-56032086D01*
X164097289Y-56236430D01*
X164097263Y-56236823D01*
X164093377Y-56297052D01*
X164079571Y-56445960D01*
X164068805Y-56556554D01*
X164042206Y-56758512D01*
X164023520Y-56885379D01*
X164001953Y-57015760D01*
X163979377Y-57134531D01*
X163942048Y-57319211D01*
X163889019Y-57534276D01*
X163855722Y-57657667D01*
X163812816Y-57804915D01*
X163756660Y-57971412D01*
X163756371Y-57972281D01*
X163730445Y-58051018D01*
X163658695Y-58234817D01*
X163658635Y-58234969D01*
X163638928Y-58285644D01*
X163579413Y-58416382D01*
X163579316Y-58416596D01*
X163527526Y-58530925D01*
X163426460Y-58729169D01*
X163312458Y-58925019D01*
X163204439Y-59095320D01*
X163099219Y-59244381D01*
X162999090Y-59378535D01*
X162963309Y-59421848D01*
X162838370Y-59571190D01*
X162794346Y-59617087D01*
X162794281Y-59617156D01*
X162726281Y-59688156D01*
X162724887Y-59689634D01*
X162663932Y-59755351D01*
X162573570Y-59839946D01*
X162450258Y-59953471D01*
X162319624Y-60062496D01*
X162288506Y-60101059D01*
X162274000Y-60160038D01*
X162274962Y-63397000D01*
X161729911Y-63397000D01*
X161728000Y-60687910D01*
X161718298Y-60639316D01*
X161690739Y-60598134D01*
X161649518Y-60570633D01*
X161600910Y-60561000D01*
X161546421Y-60573326D01*
X161155358Y-60759452D01*
X160746519Y-60920629D01*
X160557668Y-60983904D01*
X160316724Y-61055695D01*
X160069880Y-61120602D01*
X159829471Y-61174793D01*
X159584978Y-61224086D01*
X159337644Y-61265473D01*
X159106691Y-61298043D01*
X158845367Y-61328729D01*
X158605416Y-61352428D01*
X158242322Y-61377297D01*
X158194495Y-61390263D01*
X158155271Y-61420544D01*
X158130621Y-61463531D01*
X158124000Y-61503754D01*
X158113065Y-67146272D01*
X157502586Y-68218735D01*
X156936642Y-67177070D01*
X156876006Y-61715885D01*
X156877994Y-61505198D01*
X156868786Y-61456508D01*
X156841646Y-61415049D01*
X156800705Y-61387131D01*
X156760420Y-61377350D01*
X156279065Y-61341547D01*
X155803662Y-61286198D01*
X155330147Y-61208266D01*
X154866555Y-61104917D01*
X154409544Y-60972236D01*
X153961318Y-60808443D01*
X153530046Y-60610898D01*
X153118313Y-60375762D01*
X152732577Y-60103019D01*
X152377765Y-59793896D01*
X152203559Y-59604118D01*
X152203188Y-59603715D01*
X152058046Y-59446962D01*
X151779146Y-59067969D01*
X151539662Y-58661040D01*
X151340788Y-58230147D01*
X151183477Y-57784596D01*
X151061963Y-57324016D01*
X150973578Y-56854595D01*
X150916507Y-56383268D01*
X150885916Y-55909596D01*
X150878022Y-55523820D01*
X150878422Y-55501045D01*
X152125196Y-55501045D01*
X152171196Y-56329045D01*
X152173382Y-56346481D01*
X152328382Y-57135481D01*
X152334638Y-57157038D01*
X152623638Y-57900038D01*
X152636133Y-57924151D01*
X153074133Y-58585151D01*
X153093662Y-58608138D01*
X153682662Y-59154138D01*
X153704311Y-59170290D01*
X154395311Y-59579290D01*
X154416406Y-59589284D01*
X155163406Y-59862284D01*
X155179922Y-59867080D01*
X155958922Y-60037080D01*
X155972045Y-60039231D01*
X156768045Y-60127231D01*
X156778487Y-60127951D01*
X157573487Y-60149951D01*
X157582386Y-60149886D01*
X158383386Y-60115886D01*
X158394182Y-60114965D01*
X159188182Y-60012965D01*
X159202243Y-60010347D01*
X159981243Y-59819347D01*
X159998770Y-59813673D01*
X160737770Y-59513673D01*
X160758901Y-59502685D01*
X161430901Y-59068685D01*
X161452675Y-59050922D01*
X162010675Y-58481922D01*
X162028789Y-58458528D01*
X162440789Y-57774528D01*
X162452096Y-57750303D01*
X162712096Y-56994303D01*
X162717285Y-56973801D01*
X162848285Y-56184801D01*
X162849879Y-56169534D01*
X162877879Y-55527534D01*
X162877362Y-55509283D01*
X162814362Y-54883283D01*
X162807315Y-54852493D01*
X162675315Y-54490493D01*
X162659540Y-54460458D01*
X162507540Y-54246458D01*
X162484482Y-54221757D01*
X162307482Y-54076757D01*
X162278772Y-54059031D01*
X162054772Y-53959031D01*
X162022311Y-53949477D01*
X161697311Y-53899477D01*
X161678256Y-53898000D01*
X161182256Y-53897000D01*
X153449000Y-53897000D01*
X153436333Y-53897633D01*
X153017333Y-53939633D01*
X152981874Y-53948472D01*
X152749874Y-54043472D01*
X152720458Y-54060420D01*
X152541458Y-54198420D01*
X152517991Y-54222018D01*
X152360991Y-54428018D01*
X152344059Y-54457894D01*
X152211059Y-54790894D01*
X152202866Y-54823195D01*
X152125866Y-55479195D01*
X152125196Y-55501045D01*
X150878422Y-55501045D01*
X150896929Y-54449156D01*
X150962430Y-53416018D01*
X151111182Y-52375738D01*
X151372512Y-51567550D01*
X151534402Y-51322479D01*
X151653566Y-51218930D01*
X151753127Y-51170681D01*
X151857831Y-51151000D01*
X162487622Y-51151000D01*
X163236154Y-51167441D01*
X163236154Y-51167441D01*
G37*
X163236154Y-51167441D02*
X163327342Y-51205612D01*
X163440266Y-51293532D01*
X163590724Y-51496781D01*
X163827138Y-52108395D01*
X164010890Y-53135244D01*
X164094112Y-54183444D01*
X164123964Y-55523827D01*
X164111109Y-56032086D01*
X164097289Y-56236430D01*
X164097263Y-56236823D01*
X164093377Y-56297052D01*
X164079571Y-56445960D01*
X164068805Y-56556554D01*
X164042206Y-56758512D01*
X164023520Y-56885379D01*
X164001953Y-57015760D01*
X163979377Y-57134531D01*
X163942048Y-57319211D01*
X163889019Y-57534276D01*
X163855722Y-57657667D01*
X163812816Y-57804915D01*
X163756660Y-57971412D01*
X163756371Y-57972281D01*
X163730445Y-58051018D01*
X163658695Y-58234817D01*
X163658635Y-58234969D01*
X163638928Y-58285644D01*
X163579413Y-58416382D01*
X163579316Y-58416596D01*
X163527526Y-58530925D01*
X163426460Y-58729169D01*
X163312458Y-58925019D01*
X163204439Y-59095320D01*
X163099219Y-59244381D01*
X162999090Y-59378535D01*
X162963309Y-59421848D01*
X162838370Y-59571190D01*
X162794346Y-59617087D01*
X162794281Y-59617156D01*
X162726281Y-59688156D01*
X162724887Y-59689634D01*
X162663932Y-59755351D01*
X162573570Y-59839946D01*
X162450258Y-59953471D01*
X162319624Y-60062496D01*
X162288506Y-60101059D01*
X162274000Y-60160038D01*
X162274962Y-63397000D01*
X161729911Y-63397000D01*
X161728000Y-60687910D01*
X161718298Y-60639316D01*
X161690739Y-60598134D01*
X161649518Y-60570633D01*
X161600910Y-60561000D01*
X161546421Y-60573326D01*
X161155358Y-60759452D01*
X160746519Y-60920629D01*
X160557668Y-60983904D01*
X160316724Y-61055695D01*
X160069880Y-61120602D01*
X159829471Y-61174793D01*
X159584978Y-61224086D01*
X159337644Y-61265473D01*
X159106691Y-61298043D01*
X158845367Y-61328729D01*
X158605416Y-61352428D01*
X158242322Y-61377297D01*
X158194495Y-61390263D01*
X158155271Y-61420544D01*
X158130621Y-61463531D01*
X158124000Y-61503754D01*
X158113065Y-67146272D01*
X157502586Y-68218735D01*
X156936642Y-67177070D01*
X156876006Y-61715885D01*
X156877994Y-61505198D01*
X156868786Y-61456508D01*
X156841646Y-61415049D01*
X156800705Y-61387131D01*
X156760420Y-61377350D01*
X156279065Y-61341547D01*
X155803662Y-61286198D01*
X155330147Y-61208266D01*
X154866555Y-61104917D01*
X154409544Y-60972236D01*
X153961318Y-60808443D01*
X153530046Y-60610898D01*
X153118313Y-60375762D01*
X152732577Y-60103019D01*
X152377765Y-59793896D01*
X152203559Y-59604118D01*
X152203188Y-59603715D01*
X152058046Y-59446962D01*
X151779146Y-59067969D01*
X151539662Y-58661040D01*
X151340788Y-58230147D01*
X151183477Y-57784596D01*
X151061963Y-57324016D01*
X150973578Y-56854595D01*
X150916507Y-56383268D01*
X150885916Y-55909596D01*
X150878022Y-55523820D01*
X150878422Y-55501045D01*
X152125196Y-55501045D01*
X152171196Y-56329045D01*
X152173382Y-56346481D01*
X152328382Y-57135481D01*
X152334638Y-57157038D01*
X152623638Y-57900038D01*
X152636133Y-57924151D01*
X153074133Y-58585151D01*
X153093662Y-58608138D01*
X153682662Y-59154138D01*
X153704311Y-59170290D01*
X154395311Y-59579290D01*
X154416406Y-59589284D01*
X155163406Y-59862284D01*
X155179922Y-59867080D01*
X155958922Y-60037080D01*
X155972045Y-60039231D01*
X156768045Y-60127231D01*
X156778487Y-60127951D01*
X157573487Y-60149951D01*
X157582386Y-60149886D01*
X158383386Y-60115886D01*
X158394182Y-60114965D01*
X159188182Y-60012965D01*
X159202243Y-60010347D01*
X159981243Y-59819347D01*
X159998770Y-59813673D01*
X160737770Y-59513673D01*
X160758901Y-59502685D01*
X161430901Y-59068685D01*
X161452675Y-59050922D01*
X162010675Y-58481922D01*
X162028789Y-58458528D01*
X162440789Y-57774528D01*
X162452096Y-57750303D01*
X162712096Y-56994303D01*
X162717285Y-56973801D01*
X162848285Y-56184801D01*
X162849879Y-56169534D01*
X162877879Y-55527534D01*
X162877362Y-55509283D01*
X162814362Y-54883283D01*
X162807315Y-54852493D01*
X162675315Y-54490493D01*
X162659540Y-54460458D01*
X162507540Y-54246458D01*
X162484482Y-54221757D01*
X162307482Y-54076757D01*
X162278772Y-54059031D01*
X162054772Y-53959031D01*
X162022311Y-53949477D01*
X161697311Y-53899477D01*
X161678256Y-53898000D01*
X161182256Y-53897000D01*
X153449000Y-53897000D01*
X153436333Y-53897633D01*
X153017333Y-53939633D01*
X152981874Y-53948472D01*
X152749874Y-54043472D01*
X152720458Y-54060420D01*
X152541458Y-54198420D01*
X152517991Y-54222018D01*
X152360991Y-54428018D01*
X152344059Y-54457894D01*
X152211059Y-54790894D01*
X152202866Y-54823195D01*
X152125866Y-55479195D01*
X152125196Y-55501045D01*
X150878422Y-55501045D01*
X150896929Y-54449156D01*
X150962430Y-53416018D01*
X151111182Y-52375738D01*
X151372512Y-51567550D01*
X151534402Y-51322479D01*
X151653566Y-51218930D01*
X151753127Y-51170681D01*
X151857831Y-51151000D01*
X162487622Y-51151000D01*
X163236154Y-51167441D01*
G04 #@! TD*
M02*
