G04 #@! TF.GenerationSoftware,KiCad,Pcbnew,(5.0.0-rc2-153-gb37969f58)*
G04 #@! TF.CreationDate,2018-07-10T17:16:08+02:00*
G04 #@! TF.ProjectId,wb001,77623030312E6B696361645F70636200,rev?*
G04 #@! TF.SameCoordinates,Original*
G04 #@! TF.FileFunction,Other,Fab,Top*
%FSLAX46Y46*%
G04 Gerber Fmt 4.6, Leading zero omitted, Abs format (unit mm)*
G04 Created by KiCad (PCBNEW (5.0.0-rc2-153-gb37969f58)) date Tue Jul 10 17:16:08 2018*
%MOMM*%
%LPD*%
G01*
G04 APERTURE LIST*
%ADD10C,0.150000*%
G04 APERTURE END LIST*
G04 #@! TO.C,J101*
D10*
X162250000Y-75116666D02*
X162283333Y-75150000D01*
X162316666Y-75250000D01*
X162316666Y-75316666D01*
X162283333Y-75416666D01*
X162216666Y-75483333D01*
X162150000Y-75516666D01*
X162016666Y-75550000D01*
X161916666Y-75550000D01*
X161783333Y-75516666D01*
X161716666Y-75483333D01*
X161650000Y-75416666D01*
X161616666Y-75316666D01*
X161616666Y-75250000D01*
X161650000Y-75150000D01*
X161683333Y-75116666D01*
X162316666Y-74716666D02*
X162283333Y-74783333D01*
X162250000Y-74816666D01*
X162183333Y-74850000D01*
X161983333Y-74850000D01*
X161916666Y-74816666D01*
X161883333Y-74783333D01*
X161850000Y-74716666D01*
X161850000Y-74616666D01*
X161883333Y-74550000D01*
X161916666Y-74516666D01*
X161983333Y-74483333D01*
X162183333Y-74483333D01*
X162250000Y-74516666D01*
X162283333Y-74550000D01*
X162316666Y-74616666D01*
X162316666Y-74716666D01*
X161850000Y-74183333D02*
X162316666Y-74183333D01*
X161916666Y-74183333D02*
X161883333Y-74150000D01*
X161850000Y-74083333D01*
X161850000Y-73983333D01*
X161883333Y-73916666D01*
X161950000Y-73883333D01*
X162316666Y-73883333D01*
X161850000Y-73550000D02*
X162316666Y-73550000D01*
X161916666Y-73550000D02*
X161883333Y-73516666D01*
X161850000Y-73450000D01*
X161850000Y-73350000D01*
X161883333Y-73283333D01*
X161950000Y-73250000D01*
X162316666Y-73250000D01*
X162383333Y-73083333D02*
X162383333Y-72550000D01*
X161616666Y-72250000D02*
X161616666Y-72183333D01*
X161650000Y-72116666D01*
X161683333Y-72083333D01*
X161750000Y-72050000D01*
X161883333Y-72016666D01*
X162050000Y-72016666D01*
X162183333Y-72050000D01*
X162250000Y-72083333D01*
X162283333Y-72116666D01*
X162316666Y-72183333D01*
X162316666Y-72250000D01*
X162283333Y-72316666D01*
X162250000Y-72350000D01*
X162183333Y-72383333D01*
X162050000Y-72416666D01*
X161883333Y-72416666D01*
X161750000Y-72383333D01*
X161683333Y-72350000D01*
X161650000Y-72316666D01*
X161616666Y-72250000D01*
X162316666Y-71350000D02*
X162316666Y-71750000D01*
X162316666Y-71550000D02*
X161616666Y-71550000D01*
X161716666Y-71616666D01*
X161783333Y-71683333D01*
X161816666Y-71750000D01*
X162316666Y-71116666D02*
X161850000Y-70750000D01*
X161850000Y-71116666D02*
X162316666Y-70750000D01*
X161616666Y-70350000D02*
X161616666Y-70283333D01*
X161650000Y-70216666D01*
X161683333Y-70183333D01*
X161750000Y-70150000D01*
X161883333Y-70116666D01*
X162050000Y-70116666D01*
X162183333Y-70150000D01*
X162250000Y-70183333D01*
X162283333Y-70216666D01*
X162316666Y-70283333D01*
X162316666Y-70350000D01*
X162283333Y-70416666D01*
X162250000Y-70450000D01*
X162183333Y-70483333D01*
X162050000Y-70516666D01*
X161883333Y-70516666D01*
X161750000Y-70483333D01*
X161683333Y-70450000D01*
X161650000Y-70416666D01*
X161616666Y-70350000D01*
X162316666Y-69450000D02*
X162316666Y-69850000D01*
X162316666Y-69650000D02*
X161616666Y-69650000D01*
X161716666Y-69716666D01*
X161783333Y-69783333D01*
X161816666Y-69850000D01*
G04 #@! TD*
M02*
