G04 #@! TF.GenerationSoftware,KiCad,Pcbnew,(5.0.0-rc2-153-gb37969f58)*
G04 #@! TF.CreationDate,2018-07-10T17:16:08+02:00*
G04 #@! TF.ProjectId,wb001,77623030312E6B696361645F70636200,rev?*
G04 #@! TF.SameCoordinates,Original*
G04 #@! TF.FileFunction,Copper,L2,Bot,Signal*
G04 #@! TF.FilePolarity,Positive*
%FSLAX46Y46*%
G04 Gerber Fmt 4.6, Leading zero omitted, Abs format (unit mm)*
G04 Created by KiCad (PCBNEW (5.0.0-rc2-153-gb37969f58)) date Tue Jul 10 17:16:08 2018*
%MOMM*%
%LPD*%
G01*
G04 APERTURE LIST*
G04 #@! TA.AperFunction,ViaPad*
%ADD10C,0.800000*%
G04 #@! TD*
G04 #@! TA.AperFunction,Conductor*
%ADD11C,0.250000*%
G04 #@! TD*
G04 #@! TA.AperFunction,Conductor*
%ADD12C,0.254000*%
G04 #@! TD*
G04 APERTURE END LIST*
D10*
G04 #@! TO.N,Net-(AE101-Pad1)*
X162000000Y-63030000D03*
G04 #@! TO.N,GND*
X160500000Y-68000000D03*
X160500000Y-69000000D03*
X160500000Y-70000000D03*
X154500000Y-68000000D03*
X154500000Y-69000000D03*
X154500000Y-70000000D03*
X160500000Y-71000000D03*
X160500000Y-72000000D03*
X154500000Y-71000000D03*
X154500000Y-72000000D03*
G04 #@! TD*
D11*
G04 #@! TO.N,GND*
X160500000Y-68000000D02*
X161000000Y-68000000D01*
X160500000Y-69000000D02*
X161000000Y-69000000D01*
X160500000Y-70000000D02*
X161500000Y-70000000D01*
X154500000Y-70000000D02*
X154000000Y-70000000D01*
X154500000Y-69000000D02*
X154000000Y-69000000D01*
X154500000Y-68000000D02*
X154000000Y-68000000D01*
G04 #@! TD*
D12*
G04 #@! TO.N,GND*
G36*
X158872000Y-62526747D02*
X158881571Y-62575367D01*
X158909019Y-62616623D01*
X158950166Y-62644236D01*
X158999017Y-62654000D01*
X161631066Y-62653643D01*
X161553231Y-62731478D01*
X161473000Y-62925173D01*
X161473000Y-63134827D01*
X161553231Y-63328522D01*
X161701478Y-63476769D01*
X161895173Y-63557000D01*
X162104827Y-63557000D01*
X162298522Y-63476769D01*
X162446769Y-63328522D01*
X162527000Y-63134827D01*
X162527000Y-62925173D01*
X162446769Y-62731478D01*
X162368834Y-62653543D01*
X188298509Y-62650027D01*
X188299100Y-72348000D01*
X159452000Y-72348000D01*
X159452000Y-70769893D01*
X159455957Y-70750000D01*
X159440279Y-70671184D01*
X159395634Y-70604366D01*
X159328816Y-70559721D01*
X159269893Y-70548000D01*
X159269892Y-70548000D01*
X159250000Y-70544043D01*
X159230107Y-70548000D01*
X155769893Y-70548000D01*
X155750000Y-70544043D01*
X155730108Y-70548000D01*
X155730107Y-70548000D01*
X155671184Y-70559721D01*
X155604366Y-70604366D01*
X155559721Y-70671184D01*
X155544043Y-70750000D01*
X155548001Y-70769897D01*
X155548000Y-72348000D01*
X148627016Y-72348000D01*
X148627999Y-62532850D01*
X148631547Y-62507510D01*
X148639701Y-62487707D01*
X148670185Y-62449015D01*
X148772427Y-62373513D01*
X149039732Y-62271862D01*
X149253093Y-62192092D01*
X149766492Y-62078871D01*
X149922606Y-62054478D01*
X149923008Y-62054414D01*
X150178395Y-62013671D01*
X150491092Y-61971978D01*
X150759105Y-61939221D01*
X151014566Y-61913377D01*
X151330332Y-61882498D01*
X151646981Y-61856608D01*
X151988061Y-61830678D01*
X152364774Y-61805763D01*
X152905653Y-61774827D01*
X153346581Y-61753878D01*
X153904884Y-61730907D01*
X154461958Y-61711938D01*
X155099133Y-61693962D01*
X155766495Y-61678976D01*
X156398923Y-61667986D01*
X157164155Y-61658995D01*
X157782777Y-61653998D01*
X158477375Y-61651000D01*
X158873746Y-61650243D01*
X158872000Y-62526747D01*
X158872000Y-62526747D01*
G37*
X158872000Y-62526747D02*
X158881571Y-62575367D01*
X158909019Y-62616623D01*
X158950166Y-62644236D01*
X158999017Y-62654000D01*
X161631066Y-62653643D01*
X161553231Y-62731478D01*
X161473000Y-62925173D01*
X161473000Y-63134827D01*
X161553231Y-63328522D01*
X161701478Y-63476769D01*
X161895173Y-63557000D01*
X162104827Y-63557000D01*
X162298522Y-63476769D01*
X162446769Y-63328522D01*
X162527000Y-63134827D01*
X162527000Y-62925173D01*
X162446769Y-62731478D01*
X162368834Y-62653543D01*
X188298509Y-62650027D01*
X188299100Y-72348000D01*
X159452000Y-72348000D01*
X159452000Y-70769893D01*
X159455957Y-70750000D01*
X159440279Y-70671184D01*
X159395634Y-70604366D01*
X159328816Y-70559721D01*
X159269893Y-70548000D01*
X159269892Y-70548000D01*
X159250000Y-70544043D01*
X159230107Y-70548000D01*
X155769893Y-70548000D01*
X155750000Y-70544043D01*
X155730108Y-70548000D01*
X155730107Y-70548000D01*
X155671184Y-70559721D01*
X155604366Y-70604366D01*
X155559721Y-70671184D01*
X155544043Y-70750000D01*
X155548001Y-70769897D01*
X155548000Y-72348000D01*
X148627016Y-72348000D01*
X148627999Y-62532850D01*
X148631547Y-62507510D01*
X148639701Y-62487707D01*
X148670185Y-62449015D01*
X148772427Y-62373513D01*
X149039732Y-62271862D01*
X149253093Y-62192092D01*
X149766492Y-62078871D01*
X149922606Y-62054478D01*
X149923008Y-62054414D01*
X150178395Y-62013671D01*
X150491092Y-61971978D01*
X150759105Y-61939221D01*
X151014566Y-61913377D01*
X151330332Y-61882498D01*
X151646981Y-61856608D01*
X151988061Y-61830678D01*
X152364774Y-61805763D01*
X152905653Y-61774827D01*
X153346581Y-61753878D01*
X153904884Y-61730907D01*
X154461958Y-61711938D01*
X155099133Y-61693962D01*
X155766495Y-61678976D01*
X156398923Y-61667986D01*
X157164155Y-61658995D01*
X157782777Y-61653998D01*
X158477375Y-61651000D01*
X158873746Y-61650243D01*
X158872000Y-62526747D01*
G04 #@! TD*
M02*
