G04 #@! TF.GenerationSoftware,KiCad,Pcbnew,(5.0.0-rc2-153-gb37969f58)*
G04 #@! TF.CreationDate,2018-07-17T10:53:47+02:00*
G04 #@! TF.ProjectId,wb001,77623030312E6B696361645F70636200,rev?*
G04 #@! TF.SameCoordinates,Original*
G04 #@! TF.FileFunction,Legend,Top*
G04 #@! TF.FilePolarity,Positive*
%FSLAX46Y46*%
G04 Gerber Fmt 4.6, Leading zero omitted, Abs format (unit mm)*
G04 Created by KiCad (PCBNEW (5.0.0-rc2-153-gb37969f58)) date Tue Jul 17 10:53:47 2018*
%MOMM*%
%LPD*%
G01*
G04 APERTURE LIST*
%ADD10C,0.010000*%
G04 APERTURE END LIST*
D10*
G04 #@! TO.C,G\002A\002A\002A*
G36*
X183809187Y-52498369D02*
X184031074Y-52638518D01*
X184206898Y-52819972D01*
X184339458Y-53041939D01*
X184423125Y-53220375D01*
X184423125Y-65444125D01*
X184334405Y-65624787D01*
X184216724Y-65806658D01*
X184055072Y-65976796D01*
X183868690Y-66117413D01*
X183716581Y-66195945D01*
X183534125Y-66269625D01*
X177342875Y-66273912D01*
X176718256Y-66274224D01*
X176109341Y-66274290D01*
X175519278Y-66274121D01*
X174951216Y-66273727D01*
X174408305Y-66273117D01*
X173893692Y-66272300D01*
X173410528Y-66271286D01*
X172961960Y-66270086D01*
X172551139Y-66268708D01*
X172181211Y-66267162D01*
X171855328Y-66265458D01*
X171576637Y-66263605D01*
X171348288Y-66261613D01*
X171173429Y-66259493D01*
X171055210Y-66257252D01*
X170996779Y-66254902D01*
X170992875Y-66254471D01*
X170744706Y-66186459D01*
X170515683Y-66064041D01*
X170317273Y-65895776D01*
X170160943Y-65690228D01*
X170111238Y-65596231D01*
X170040375Y-65444125D01*
X170040375Y-61713500D01*
X170183250Y-61713500D01*
X170183947Y-63547062D01*
X170184174Y-63935284D01*
X170184647Y-64265202D01*
X170185532Y-64542012D01*
X170186996Y-64770910D01*
X170189204Y-64957092D01*
X170192322Y-65105755D01*
X170196516Y-65222093D01*
X170201953Y-65311304D01*
X170208798Y-65378582D01*
X170217218Y-65429125D01*
X170227378Y-65468128D01*
X170239445Y-65500787D01*
X170246927Y-65517868D01*
X170300891Y-65624950D01*
X170359458Y-65724484D01*
X170375339Y-65747982D01*
X170473555Y-65852159D01*
X170610033Y-65954280D01*
X170761030Y-66038583D01*
X170881605Y-66084067D01*
X170912922Y-66088880D01*
X170971281Y-66093282D01*
X171058834Y-66097284D01*
X171177731Y-66100897D01*
X171330124Y-66104133D01*
X171518164Y-66107002D01*
X171744002Y-66109515D01*
X172009790Y-66111683D01*
X172317679Y-66113518D01*
X172669820Y-66115030D01*
X173068364Y-66116230D01*
X173515462Y-66117129D01*
X174013266Y-66117739D01*
X174563928Y-66118070D01*
X175169597Y-66118133D01*
X175832426Y-66117940D01*
X176554565Y-66117501D01*
X177295250Y-66116868D01*
X183565875Y-66110875D01*
X183708750Y-66040265D01*
X183914659Y-65913990D01*
X184071487Y-65759113D01*
X184182750Y-65581471D01*
X184280249Y-65386357D01*
X184280250Y-63553737D01*
X184280250Y-61721116D01*
X182319687Y-61697317D01*
X181833191Y-61691665D01*
X181405981Y-61687347D01*
X181033854Y-61684471D01*
X180712608Y-61683148D01*
X180438040Y-61683484D01*
X180205948Y-61685590D01*
X180012130Y-61689574D01*
X179852382Y-61695546D01*
X179722503Y-61703613D01*
X179618291Y-61713885D01*
X179535542Y-61726471D01*
X179470054Y-61741479D01*
X179417625Y-61759019D01*
X179385480Y-61773337D01*
X179289491Y-61831400D01*
X179210928Y-61896846D01*
X179191232Y-61919803D01*
X179152439Y-61997951D01*
X179105842Y-62133486D01*
X179052828Y-62320965D01*
X178994786Y-62554943D01*
X178933103Y-62829977D01*
X178869167Y-63140623D01*
X178835026Y-63316875D01*
X178795540Y-63524896D01*
X178756558Y-63730181D01*
X178721006Y-63917327D01*
X178691810Y-64070933D01*
X178673807Y-64165560D01*
X178607009Y-64464703D01*
X178531906Y-64705230D01*
X178449025Y-64885957D01*
X178358893Y-65005698D01*
X178275871Y-65059036D01*
X178165893Y-65066863D01*
X178061668Y-65016220D01*
X177971435Y-64912086D01*
X177941191Y-64856750D01*
X177927673Y-64824630D01*
X177914991Y-64784085D01*
X177902683Y-64730586D01*
X177890292Y-64659609D01*
X177877356Y-64566625D01*
X177863416Y-64447108D01*
X177848012Y-64296532D01*
X177830685Y-64110370D01*
X177810974Y-63884096D01*
X177788420Y-63613182D01*
X177762563Y-63293102D01*
X177732942Y-62919330D01*
X177699099Y-62487338D01*
X177694460Y-62427875D01*
X177631775Y-61621720D01*
X177574242Y-60876575D01*
X177521695Y-60190174D01*
X177473966Y-59560250D01*
X177430892Y-58984534D01*
X177392305Y-58460762D01*
X177358041Y-57986666D01*
X177327932Y-57559978D01*
X177301814Y-57178433D01*
X177279521Y-56839763D01*
X177260887Y-56541702D01*
X177248554Y-56331875D01*
X177222655Y-55886968D01*
X177199063Y-55504640D01*
X177177710Y-55184013D01*
X177158530Y-54924208D01*
X177141455Y-54724349D01*
X177126417Y-54583557D01*
X177113349Y-54500956D01*
X177106467Y-54479035D01*
X177096565Y-54472344D01*
X177086363Y-54489809D01*
X177075604Y-54534578D01*
X177064031Y-54609799D01*
X177051386Y-54718619D01*
X177037411Y-54864187D01*
X177021850Y-55049650D01*
X177004444Y-55278156D01*
X176984936Y-55552853D01*
X176963069Y-55876889D01*
X176938585Y-56253411D01*
X176911227Y-56685568D01*
X176880737Y-57176508D01*
X176865326Y-57427250D01*
X176840533Y-57829367D01*
X176812506Y-58279853D01*
X176782193Y-58763714D01*
X176750540Y-59265959D01*
X176718496Y-59771593D01*
X176687009Y-60265622D01*
X176657026Y-60733055D01*
X176629495Y-61158898D01*
X176627498Y-61189625D01*
X176591221Y-61745648D01*
X176558459Y-62241949D01*
X176528796Y-62682185D01*
X176501814Y-63070012D01*
X176477097Y-63409085D01*
X176454229Y-63703062D01*
X176432795Y-63955598D01*
X176412376Y-64170350D01*
X176392557Y-64350974D01*
X176372921Y-64501127D01*
X176353052Y-64624464D01*
X176332534Y-64724642D01*
X176310950Y-64805318D01*
X176287884Y-64870147D01*
X176262919Y-64922786D01*
X176235639Y-64966891D01*
X176205627Y-65006119D01*
X176190874Y-65023437D01*
X176109184Y-65074951D01*
X176012128Y-65077360D01*
X175919225Y-65034621D01*
X175852068Y-64954791D01*
X175828169Y-64892699D01*
X175791646Y-64777106D01*
X175744699Y-64616260D01*
X175689526Y-64418406D01*
X175628327Y-64191790D01*
X175563300Y-63944660D01*
X175496643Y-63685260D01*
X175430557Y-63421836D01*
X175367238Y-63162636D01*
X175312144Y-62929931D01*
X175265672Y-62734335D01*
X175220817Y-62553372D01*
X175180620Y-62398725D01*
X175148123Y-62282075D01*
X175126366Y-62215104D01*
X175125605Y-62213247D01*
X175030393Y-62053662D01*
X174891953Y-61908833D01*
X174730305Y-61799133D01*
X174707856Y-61788154D01*
X174548875Y-61714120D01*
X172366062Y-61713810D01*
X170183250Y-61713500D01*
X170040375Y-61713500D01*
X170040375Y-61393954D01*
X170182315Y-61393954D01*
X172413220Y-61402914D01*
X174644125Y-61411875D01*
X174822560Y-61495541D01*
X175037446Y-61623803D01*
X175219358Y-61787281D01*
X175339069Y-61948423D01*
X175372289Y-62010634D01*
X175404678Y-62084898D01*
X175438350Y-62178444D01*
X175475417Y-62298502D01*
X175517995Y-62452302D01*
X175568195Y-62647076D01*
X175628131Y-62890052D01*
X175692672Y-63158125D01*
X175778772Y-63514960D01*
X175852261Y-63811876D01*
X175913751Y-64051063D01*
X175963850Y-64234708D01*
X176003170Y-64365001D01*
X176032321Y-64444132D01*
X176051914Y-64474289D01*
X176058743Y-64470967D01*
X176068493Y-64434166D01*
X176080346Y-64354496D01*
X176094393Y-64230664D01*
X176110724Y-64061377D01*
X176129429Y-63845339D01*
X176150600Y-63581259D01*
X176174327Y-63267841D01*
X176200701Y-62903792D01*
X176229812Y-62487818D01*
X176261752Y-62018626D01*
X176296611Y-61494922D01*
X176334480Y-60915411D01*
X176375450Y-60278801D01*
X176419611Y-59583798D01*
X176467053Y-58829107D01*
X176517869Y-58013436D01*
X176564927Y-57252625D01*
X176601421Y-56674935D01*
X176636530Y-56147489D01*
X176670126Y-55671776D01*
X176702083Y-55249285D01*
X176732273Y-54881506D01*
X176760568Y-54569927D01*
X176786841Y-54316039D01*
X176810966Y-54121331D01*
X176832813Y-53987293D01*
X176849816Y-53921330D01*
X176907230Y-53835339D01*
X176994022Y-53769722D01*
X177082506Y-53744250D01*
X177142043Y-53765597D01*
X177214721Y-53818393D01*
X177230179Y-53833044D01*
X177276158Y-53891076D01*
X177316879Y-53970648D01*
X177353043Y-54076495D01*
X177385351Y-54213354D01*
X177414502Y-54385961D01*
X177441198Y-54599050D01*
X177466138Y-54857360D01*
X177490023Y-55165625D01*
X177513554Y-55528581D01*
X177534003Y-55887375D01*
X177551560Y-56192782D01*
X177574146Y-56556174D01*
X177601371Y-56972267D01*
X177632846Y-57435777D01*
X177668181Y-57941421D01*
X177706987Y-58483914D01*
X177748873Y-59057973D01*
X177793451Y-59658314D01*
X177840330Y-60279653D01*
X177889121Y-60916706D01*
X177939434Y-61564191D01*
X177990879Y-62216822D01*
X178043067Y-62869317D01*
X178095609Y-63516391D01*
X178105669Y-63639141D01*
X178125366Y-63880404D01*
X178143255Y-64102072D01*
X178158696Y-64295994D01*
X178171047Y-64454021D01*
X178179667Y-64568001D01*
X178183914Y-64629783D01*
X178184250Y-64637678D01*
X178192046Y-64671014D01*
X178212727Y-64651682D01*
X178242228Y-64588214D01*
X178276487Y-64489138D01*
X178307321Y-64379349D01*
X178334837Y-64260942D01*
X178368875Y-64098578D01*
X178405688Y-63910965D01*
X178441531Y-63716810D01*
X178452677Y-63653518D01*
X178495539Y-63416902D01*
X178544218Y-63165173D01*
X178596188Y-62909973D01*
X178648924Y-62662947D01*
X178699900Y-62435739D01*
X178746590Y-62239994D01*
X178786468Y-62087354D01*
X178808076Y-62015125D01*
X178896535Y-61816484D01*
X179016903Y-61651192D01*
X179125618Y-61555958D01*
X179168608Y-61526965D01*
X179210234Y-61501707D01*
X179254967Y-61479924D01*
X179307278Y-61461360D01*
X179371636Y-61445758D01*
X179452513Y-61432860D01*
X179554378Y-61422410D01*
X179681702Y-61414148D01*
X179838955Y-61407819D01*
X180030609Y-61403164D01*
X180261132Y-61399927D01*
X180534996Y-61397850D01*
X180856672Y-61396676D01*
X181230629Y-61396146D01*
X181661337Y-61396005D01*
X181904046Y-61396000D01*
X184280250Y-61396000D01*
X184280250Y-57353530D01*
X184280337Y-56750002D01*
X184280480Y-56206636D01*
X184280499Y-55720095D01*
X184280213Y-55287043D01*
X184279443Y-54904141D01*
X184278008Y-54568053D01*
X184275728Y-54275442D01*
X184272424Y-54022970D01*
X184267915Y-53807301D01*
X184262021Y-53625097D01*
X184254563Y-53473021D01*
X184245360Y-53347735D01*
X184234233Y-53245904D01*
X184221001Y-53164189D01*
X184205484Y-53099254D01*
X184187502Y-53047760D01*
X184166876Y-53006372D01*
X184143425Y-52971752D01*
X184116969Y-52940563D01*
X184087328Y-52909468D01*
X184054323Y-52875129D01*
X184037698Y-52857033D01*
X183914554Y-52742319D01*
X183771968Y-52641907D01*
X183715182Y-52610786D01*
X183534125Y-52521875D01*
X177247625Y-52521875D01*
X176504557Y-52521887D01*
X175822320Y-52521943D01*
X175198241Y-52522065D01*
X174629650Y-52522281D01*
X174113877Y-52522615D01*
X173648251Y-52523092D01*
X173230101Y-52523738D01*
X172856757Y-52524577D01*
X172525548Y-52525636D01*
X172233804Y-52526939D01*
X171978854Y-52528511D01*
X171758027Y-52530378D01*
X171568653Y-52532565D01*
X171408061Y-52535097D01*
X171273581Y-52537999D01*
X171162542Y-52541297D01*
X171072273Y-52545016D01*
X171000104Y-52549181D01*
X170943365Y-52553817D01*
X170899384Y-52558950D01*
X170865490Y-52564604D01*
X170839015Y-52570806D01*
X170817286Y-52577580D01*
X170803269Y-52582753D01*
X170654389Y-52662567D01*
X170501246Y-52781668D01*
X170365012Y-52921159D01*
X170267557Y-53060843D01*
X170199125Y-53188625D01*
X170190720Y-57291289D01*
X170182315Y-61393954D01*
X170040375Y-61393954D01*
X170040375Y-53220375D01*
X170124041Y-53041939D01*
X170260191Y-52815291D01*
X170437979Y-52633065D01*
X170635105Y-52502796D01*
X170834125Y-52394875D01*
X183598957Y-52394875D01*
X183809187Y-52498369D01*
X183809187Y-52498369D01*
G37*
X183809187Y-52498369D02*
X184031074Y-52638518D01*
X184206898Y-52819972D01*
X184339458Y-53041939D01*
X184423125Y-53220375D01*
X184423125Y-65444125D01*
X184334405Y-65624787D01*
X184216724Y-65806658D01*
X184055072Y-65976796D01*
X183868690Y-66117413D01*
X183716581Y-66195945D01*
X183534125Y-66269625D01*
X177342875Y-66273912D01*
X176718256Y-66274224D01*
X176109341Y-66274290D01*
X175519278Y-66274121D01*
X174951216Y-66273727D01*
X174408305Y-66273117D01*
X173893692Y-66272300D01*
X173410528Y-66271286D01*
X172961960Y-66270086D01*
X172551139Y-66268708D01*
X172181211Y-66267162D01*
X171855328Y-66265458D01*
X171576637Y-66263605D01*
X171348288Y-66261613D01*
X171173429Y-66259493D01*
X171055210Y-66257252D01*
X170996779Y-66254902D01*
X170992875Y-66254471D01*
X170744706Y-66186459D01*
X170515683Y-66064041D01*
X170317273Y-65895776D01*
X170160943Y-65690228D01*
X170111238Y-65596231D01*
X170040375Y-65444125D01*
X170040375Y-61713500D01*
X170183250Y-61713500D01*
X170183947Y-63547062D01*
X170184174Y-63935284D01*
X170184647Y-64265202D01*
X170185532Y-64542012D01*
X170186996Y-64770910D01*
X170189204Y-64957092D01*
X170192322Y-65105755D01*
X170196516Y-65222093D01*
X170201953Y-65311304D01*
X170208798Y-65378582D01*
X170217218Y-65429125D01*
X170227378Y-65468128D01*
X170239445Y-65500787D01*
X170246927Y-65517868D01*
X170300891Y-65624950D01*
X170359458Y-65724484D01*
X170375339Y-65747982D01*
X170473555Y-65852159D01*
X170610033Y-65954280D01*
X170761030Y-66038583D01*
X170881605Y-66084067D01*
X170912922Y-66088880D01*
X170971281Y-66093282D01*
X171058834Y-66097284D01*
X171177731Y-66100897D01*
X171330124Y-66104133D01*
X171518164Y-66107002D01*
X171744002Y-66109515D01*
X172009790Y-66111683D01*
X172317679Y-66113518D01*
X172669820Y-66115030D01*
X173068364Y-66116230D01*
X173515462Y-66117129D01*
X174013266Y-66117739D01*
X174563928Y-66118070D01*
X175169597Y-66118133D01*
X175832426Y-66117940D01*
X176554565Y-66117501D01*
X177295250Y-66116868D01*
X183565875Y-66110875D01*
X183708750Y-66040265D01*
X183914659Y-65913990D01*
X184071487Y-65759113D01*
X184182750Y-65581471D01*
X184280249Y-65386357D01*
X184280250Y-63553737D01*
X184280250Y-61721116D01*
X182319687Y-61697317D01*
X181833191Y-61691665D01*
X181405981Y-61687347D01*
X181033854Y-61684471D01*
X180712608Y-61683148D01*
X180438040Y-61683484D01*
X180205948Y-61685590D01*
X180012130Y-61689574D01*
X179852382Y-61695546D01*
X179722503Y-61703613D01*
X179618291Y-61713885D01*
X179535542Y-61726471D01*
X179470054Y-61741479D01*
X179417625Y-61759019D01*
X179385480Y-61773337D01*
X179289491Y-61831400D01*
X179210928Y-61896846D01*
X179191232Y-61919803D01*
X179152439Y-61997951D01*
X179105842Y-62133486D01*
X179052828Y-62320965D01*
X178994786Y-62554943D01*
X178933103Y-62829977D01*
X178869167Y-63140623D01*
X178835026Y-63316875D01*
X178795540Y-63524896D01*
X178756558Y-63730181D01*
X178721006Y-63917327D01*
X178691810Y-64070933D01*
X178673807Y-64165560D01*
X178607009Y-64464703D01*
X178531906Y-64705230D01*
X178449025Y-64885957D01*
X178358893Y-65005698D01*
X178275871Y-65059036D01*
X178165893Y-65066863D01*
X178061668Y-65016220D01*
X177971435Y-64912086D01*
X177941191Y-64856750D01*
X177927673Y-64824630D01*
X177914991Y-64784085D01*
X177902683Y-64730586D01*
X177890292Y-64659609D01*
X177877356Y-64566625D01*
X177863416Y-64447108D01*
X177848012Y-64296532D01*
X177830685Y-64110370D01*
X177810974Y-63884096D01*
X177788420Y-63613182D01*
X177762563Y-63293102D01*
X177732942Y-62919330D01*
X177699099Y-62487338D01*
X177694460Y-62427875D01*
X177631775Y-61621720D01*
X177574242Y-60876575D01*
X177521695Y-60190174D01*
X177473966Y-59560250D01*
X177430892Y-58984534D01*
X177392305Y-58460762D01*
X177358041Y-57986666D01*
X177327932Y-57559978D01*
X177301814Y-57178433D01*
X177279521Y-56839763D01*
X177260887Y-56541702D01*
X177248554Y-56331875D01*
X177222655Y-55886968D01*
X177199063Y-55504640D01*
X177177710Y-55184013D01*
X177158530Y-54924208D01*
X177141455Y-54724349D01*
X177126417Y-54583557D01*
X177113349Y-54500956D01*
X177106467Y-54479035D01*
X177096565Y-54472344D01*
X177086363Y-54489809D01*
X177075604Y-54534578D01*
X177064031Y-54609799D01*
X177051386Y-54718619D01*
X177037411Y-54864187D01*
X177021850Y-55049650D01*
X177004444Y-55278156D01*
X176984936Y-55552853D01*
X176963069Y-55876889D01*
X176938585Y-56253411D01*
X176911227Y-56685568D01*
X176880737Y-57176508D01*
X176865326Y-57427250D01*
X176840533Y-57829367D01*
X176812506Y-58279853D01*
X176782193Y-58763714D01*
X176750540Y-59265959D01*
X176718496Y-59771593D01*
X176687009Y-60265622D01*
X176657026Y-60733055D01*
X176629495Y-61158898D01*
X176627498Y-61189625D01*
X176591221Y-61745648D01*
X176558459Y-62241949D01*
X176528796Y-62682185D01*
X176501814Y-63070012D01*
X176477097Y-63409085D01*
X176454229Y-63703062D01*
X176432795Y-63955598D01*
X176412376Y-64170350D01*
X176392557Y-64350974D01*
X176372921Y-64501127D01*
X176353052Y-64624464D01*
X176332534Y-64724642D01*
X176310950Y-64805318D01*
X176287884Y-64870147D01*
X176262919Y-64922786D01*
X176235639Y-64966891D01*
X176205627Y-65006119D01*
X176190874Y-65023437D01*
X176109184Y-65074951D01*
X176012128Y-65077360D01*
X175919225Y-65034621D01*
X175852068Y-64954791D01*
X175828169Y-64892699D01*
X175791646Y-64777106D01*
X175744699Y-64616260D01*
X175689526Y-64418406D01*
X175628327Y-64191790D01*
X175563300Y-63944660D01*
X175496643Y-63685260D01*
X175430557Y-63421836D01*
X175367238Y-63162636D01*
X175312144Y-62929931D01*
X175265672Y-62734335D01*
X175220817Y-62553372D01*
X175180620Y-62398725D01*
X175148123Y-62282075D01*
X175126366Y-62215104D01*
X175125605Y-62213247D01*
X175030393Y-62053662D01*
X174891953Y-61908833D01*
X174730305Y-61799133D01*
X174707856Y-61788154D01*
X174548875Y-61714120D01*
X172366062Y-61713810D01*
X170183250Y-61713500D01*
X170040375Y-61713500D01*
X170040375Y-61393954D01*
X170182315Y-61393954D01*
X172413220Y-61402914D01*
X174644125Y-61411875D01*
X174822560Y-61495541D01*
X175037446Y-61623803D01*
X175219358Y-61787281D01*
X175339069Y-61948423D01*
X175372289Y-62010634D01*
X175404678Y-62084898D01*
X175438350Y-62178444D01*
X175475417Y-62298502D01*
X175517995Y-62452302D01*
X175568195Y-62647076D01*
X175628131Y-62890052D01*
X175692672Y-63158125D01*
X175778772Y-63514960D01*
X175852261Y-63811876D01*
X175913751Y-64051063D01*
X175963850Y-64234708D01*
X176003170Y-64365001D01*
X176032321Y-64444132D01*
X176051914Y-64474289D01*
X176058743Y-64470967D01*
X176068493Y-64434166D01*
X176080346Y-64354496D01*
X176094393Y-64230664D01*
X176110724Y-64061377D01*
X176129429Y-63845339D01*
X176150600Y-63581259D01*
X176174327Y-63267841D01*
X176200701Y-62903792D01*
X176229812Y-62487818D01*
X176261752Y-62018626D01*
X176296611Y-61494922D01*
X176334480Y-60915411D01*
X176375450Y-60278801D01*
X176419611Y-59583798D01*
X176467053Y-58829107D01*
X176517869Y-58013436D01*
X176564927Y-57252625D01*
X176601421Y-56674935D01*
X176636530Y-56147489D01*
X176670126Y-55671776D01*
X176702083Y-55249285D01*
X176732273Y-54881506D01*
X176760568Y-54569927D01*
X176786841Y-54316039D01*
X176810966Y-54121331D01*
X176832813Y-53987293D01*
X176849816Y-53921330D01*
X176907230Y-53835339D01*
X176994022Y-53769722D01*
X177082506Y-53744250D01*
X177142043Y-53765597D01*
X177214721Y-53818393D01*
X177230179Y-53833044D01*
X177276158Y-53891076D01*
X177316879Y-53970648D01*
X177353043Y-54076495D01*
X177385351Y-54213354D01*
X177414502Y-54385961D01*
X177441198Y-54599050D01*
X177466138Y-54857360D01*
X177490023Y-55165625D01*
X177513554Y-55528581D01*
X177534003Y-55887375D01*
X177551560Y-56192782D01*
X177574146Y-56556174D01*
X177601371Y-56972267D01*
X177632846Y-57435777D01*
X177668181Y-57941421D01*
X177706987Y-58483914D01*
X177748873Y-59057973D01*
X177793451Y-59658314D01*
X177840330Y-60279653D01*
X177889121Y-60916706D01*
X177939434Y-61564191D01*
X177990879Y-62216822D01*
X178043067Y-62869317D01*
X178095609Y-63516391D01*
X178105669Y-63639141D01*
X178125366Y-63880404D01*
X178143255Y-64102072D01*
X178158696Y-64295994D01*
X178171047Y-64454021D01*
X178179667Y-64568001D01*
X178183914Y-64629783D01*
X178184250Y-64637678D01*
X178192046Y-64671014D01*
X178212727Y-64651682D01*
X178242228Y-64588214D01*
X178276487Y-64489138D01*
X178307321Y-64379349D01*
X178334837Y-64260942D01*
X178368875Y-64098578D01*
X178405688Y-63910965D01*
X178441531Y-63716810D01*
X178452677Y-63653518D01*
X178495539Y-63416902D01*
X178544218Y-63165173D01*
X178596188Y-62909973D01*
X178648924Y-62662947D01*
X178699900Y-62435739D01*
X178746590Y-62239994D01*
X178786468Y-62087354D01*
X178808076Y-62015125D01*
X178896535Y-61816484D01*
X179016903Y-61651192D01*
X179125618Y-61555958D01*
X179168608Y-61526965D01*
X179210234Y-61501707D01*
X179254967Y-61479924D01*
X179307278Y-61461360D01*
X179371636Y-61445758D01*
X179452513Y-61432860D01*
X179554378Y-61422410D01*
X179681702Y-61414148D01*
X179838955Y-61407819D01*
X180030609Y-61403164D01*
X180261132Y-61399927D01*
X180534996Y-61397850D01*
X180856672Y-61396676D01*
X181230629Y-61396146D01*
X181661337Y-61396005D01*
X181904046Y-61396000D01*
X184280250Y-61396000D01*
X184280250Y-57353530D01*
X184280337Y-56750002D01*
X184280480Y-56206636D01*
X184280499Y-55720095D01*
X184280213Y-55287043D01*
X184279443Y-54904141D01*
X184278008Y-54568053D01*
X184275728Y-54275442D01*
X184272424Y-54022970D01*
X184267915Y-53807301D01*
X184262021Y-53625097D01*
X184254563Y-53473021D01*
X184245360Y-53347735D01*
X184234233Y-53245904D01*
X184221001Y-53164189D01*
X184205484Y-53099254D01*
X184187502Y-53047760D01*
X184166876Y-53006372D01*
X184143425Y-52971752D01*
X184116969Y-52940563D01*
X184087328Y-52909468D01*
X184054323Y-52875129D01*
X184037698Y-52857033D01*
X183914554Y-52742319D01*
X183771968Y-52641907D01*
X183715182Y-52610786D01*
X183534125Y-52521875D01*
X177247625Y-52521875D01*
X176504557Y-52521887D01*
X175822320Y-52521943D01*
X175198241Y-52522065D01*
X174629650Y-52522281D01*
X174113877Y-52522615D01*
X173648251Y-52523092D01*
X173230101Y-52523738D01*
X172856757Y-52524577D01*
X172525548Y-52525636D01*
X172233804Y-52526939D01*
X171978854Y-52528511D01*
X171758027Y-52530378D01*
X171568653Y-52532565D01*
X171408061Y-52535097D01*
X171273581Y-52537999D01*
X171162542Y-52541297D01*
X171072273Y-52545016D01*
X171000104Y-52549181D01*
X170943365Y-52553817D01*
X170899384Y-52558950D01*
X170865490Y-52564604D01*
X170839015Y-52570806D01*
X170817286Y-52577580D01*
X170803269Y-52582753D01*
X170654389Y-52662567D01*
X170501246Y-52781668D01*
X170365012Y-52921159D01*
X170267557Y-53060843D01*
X170199125Y-53188625D01*
X170190720Y-57291289D01*
X170182315Y-61393954D01*
X170040375Y-61393954D01*
X170040375Y-53220375D01*
X170124041Y-53041939D01*
X170260191Y-52815291D01*
X170437979Y-52633065D01*
X170635105Y-52502796D01*
X170834125Y-52394875D01*
X183598957Y-52394875D01*
X183809187Y-52498369D01*
G36*
X180470250Y-68349250D02*
X180216250Y-68349250D01*
X180216250Y-68063500D01*
X180470250Y-68063500D01*
X180470250Y-68349250D01*
X180470250Y-68349250D01*
G37*
X180470250Y-68349250D02*
X180216250Y-68349250D01*
X180216250Y-68063500D01*
X180470250Y-68063500D01*
X180470250Y-68349250D01*
G36*
X174660000Y-68349250D02*
X174406000Y-68349250D01*
X174406000Y-68063500D01*
X174660000Y-68063500D01*
X174660000Y-68349250D01*
X174660000Y-68349250D01*
G37*
X174660000Y-68349250D02*
X174406000Y-68349250D01*
X174406000Y-68063500D01*
X174660000Y-68063500D01*
X174660000Y-68349250D01*
G36*
X181833025Y-68884034D02*
X181985658Y-68914379D01*
X182096871Y-68969837D01*
X182176513Y-69054349D01*
X182206109Y-69105765D01*
X182224400Y-69149147D01*
X182238742Y-69202552D01*
X182249757Y-69274314D01*
X182258064Y-69372768D01*
X182264284Y-69506249D01*
X182269037Y-69683089D01*
X182272943Y-69911623D01*
X182274469Y-70024062D01*
X182284813Y-70825750D01*
X182026000Y-70825750D01*
X182026000Y-70094480D01*
X182025097Y-69827817D01*
X182021355Y-69617312D01*
X182013226Y-69455634D01*
X181999160Y-69335455D01*
X181977607Y-69249444D01*
X181947019Y-69190271D01*
X181905847Y-69150608D01*
X181852540Y-69123125D01*
X181818068Y-69110736D01*
X181693879Y-69087691D01*
X181547497Y-69086467D01*
X181402678Y-69104794D01*
X181283176Y-69140403D01*
X181237288Y-69166204D01*
X181172264Y-69216473D01*
X181122117Y-69263949D01*
X181084782Y-69317479D01*
X181058195Y-69385909D01*
X181040292Y-69478086D01*
X181029010Y-69602855D01*
X181022284Y-69769065D01*
X181018051Y-69985560D01*
X181016249Y-70113613D01*
X181006623Y-70825750D01*
X180756000Y-70825750D01*
X180756000Y-68889000D01*
X181015581Y-68889000D01*
X180994125Y-69016000D01*
X180984677Y-69106284D01*
X180998439Y-69137876D01*
X181037723Y-69112044D01*
X181079671Y-69062990D01*
X181164141Y-68976730D01*
X181265460Y-68919863D01*
X181397458Y-68887656D01*
X181573962Y-68875374D01*
X181629125Y-68874860D01*
X181833025Y-68884034D01*
X181833025Y-68884034D01*
G37*
X181833025Y-68884034D02*
X181985658Y-68914379D01*
X182096871Y-68969837D01*
X182176513Y-69054349D01*
X182206109Y-69105765D01*
X182224400Y-69149147D01*
X182238742Y-69202552D01*
X182249757Y-69274314D01*
X182258064Y-69372768D01*
X182264284Y-69506249D01*
X182269037Y-69683089D01*
X182272943Y-69911623D01*
X182274469Y-70024062D01*
X182284813Y-70825750D01*
X182026000Y-70825750D01*
X182026000Y-70094480D01*
X182025097Y-69827817D01*
X182021355Y-69617312D01*
X182013226Y-69455634D01*
X181999160Y-69335455D01*
X181977607Y-69249444D01*
X181947019Y-69190271D01*
X181905847Y-69150608D01*
X181852540Y-69123125D01*
X181818068Y-69110736D01*
X181693879Y-69087691D01*
X181547497Y-69086467D01*
X181402678Y-69104794D01*
X181283176Y-69140403D01*
X181237288Y-69166204D01*
X181172264Y-69216473D01*
X181122117Y-69263949D01*
X181084782Y-69317479D01*
X181058195Y-69385909D01*
X181040292Y-69478086D01*
X181029010Y-69602855D01*
X181022284Y-69769065D01*
X181018051Y-69985560D01*
X181016249Y-70113613D01*
X181006623Y-70825750D01*
X180756000Y-70825750D01*
X180756000Y-68889000D01*
X181015581Y-68889000D01*
X180994125Y-69016000D01*
X180984677Y-69106284D01*
X180998439Y-69137876D01*
X181037723Y-69112044D01*
X181079671Y-69062990D01*
X181164141Y-68976730D01*
X181265460Y-68919863D01*
X181397458Y-68887656D01*
X181573962Y-68875374D01*
X181629125Y-68874860D01*
X181833025Y-68884034D01*
G36*
X180470250Y-70825750D02*
X180216250Y-70825750D01*
X180216250Y-68889000D01*
X180470250Y-68889000D01*
X180470250Y-70825750D01*
X180470250Y-70825750D01*
G37*
X180470250Y-70825750D02*
X180216250Y-70825750D01*
X180216250Y-68889000D01*
X180470250Y-68889000D01*
X180470250Y-70825750D01*
G36*
X180114979Y-68182562D02*
X180105125Y-68301625D01*
X178785853Y-68318793D01*
X178803375Y-69285875D01*
X179430437Y-69294483D01*
X180057500Y-69303092D01*
X180057500Y-69522657D01*
X179430437Y-69531266D01*
X178803375Y-69539875D01*
X178794780Y-70182812D01*
X178786185Y-70825750D01*
X178533500Y-70825750D01*
X178533500Y-68063500D01*
X180124833Y-68063500D01*
X180114979Y-68182562D01*
X180114979Y-68182562D01*
G37*
X180114979Y-68182562D02*
X180105125Y-68301625D01*
X178785853Y-68318793D01*
X178803375Y-69285875D01*
X179430437Y-69294483D01*
X180057500Y-69303092D01*
X180057500Y-69522657D01*
X179430437Y-69531266D01*
X178803375Y-69539875D01*
X178794780Y-70182812D01*
X178786185Y-70825750D01*
X178533500Y-70825750D01*
X178533500Y-68063500D01*
X180124833Y-68063500D01*
X180114979Y-68182562D01*
G36*
X174660000Y-70825750D02*
X174406000Y-70825750D01*
X174406000Y-68889000D01*
X174660000Y-68889000D01*
X174660000Y-70825750D01*
X174660000Y-70825750D01*
G37*
X174660000Y-70825750D02*
X174406000Y-70825750D01*
X174406000Y-68889000D01*
X174660000Y-68889000D01*
X174660000Y-70825750D01*
G36*
X171085462Y-69277937D02*
X171161385Y-69545981D01*
X171232764Y-69795878D01*
X171297602Y-70020790D01*
X171353903Y-70213884D01*
X171399669Y-70368322D01*
X171432903Y-70477268D01*
X171451608Y-70533886D01*
X171454035Y-70539551D01*
X171475707Y-70558685D01*
X171495318Y-70522623D01*
X171503810Y-70491926D01*
X171517552Y-70440511D01*
X171546342Y-70335334D01*
X171588133Y-70183792D01*
X171640877Y-69993277D01*
X171702526Y-69771185D01*
X171771034Y-69524909D01*
X171844352Y-69261846D01*
X171850935Y-69238250D01*
X172174281Y-68079375D01*
X172608759Y-68079375D01*
X172933437Y-69250170D01*
X173006864Y-69515150D01*
X173075564Y-69763458D01*
X173137537Y-69987833D01*
X173190781Y-70181015D01*
X173233297Y-70335745D01*
X173263083Y-70444762D01*
X173278140Y-70500807D01*
X173278917Y-70503846D01*
X173297917Y-70556481D01*
X173317786Y-70551386D01*
X173324899Y-70539551D01*
X173339011Y-70499389D01*
X173368479Y-70405056D01*
X173411258Y-70263447D01*
X173465303Y-70081460D01*
X173528569Y-69865991D01*
X173599010Y-69623938D01*
X173674581Y-69362198D01*
X173691953Y-69301750D01*
X173768196Y-69037574D01*
X173839687Y-68792446D01*
X173904405Y-68573102D01*
X173960330Y-68386284D01*
X174005438Y-68238731D01*
X174037709Y-68137182D01*
X174055121Y-68088375D01*
X174056849Y-68085276D01*
X174100522Y-68071181D01*
X174180949Y-68067899D01*
X174207882Y-68069401D01*
X174335891Y-68079375D01*
X173930052Y-69444625D01*
X173524212Y-70809875D01*
X173306293Y-70818990D01*
X173088375Y-70828105D01*
X172757526Y-69612490D01*
X172684287Y-69344251D01*
X172615625Y-69094422D01*
X172553448Y-68869822D01*
X172499663Y-68677271D01*
X172456180Y-68523587D01*
X172424904Y-68415591D01*
X172407745Y-68360102D01*
X172405685Y-68354813D01*
X172391024Y-68370047D01*
X172363006Y-68437902D01*
X172324638Y-68549645D01*
X172278925Y-68696541D01*
X172230842Y-68862813D01*
X172172881Y-69069868D01*
X172103449Y-69317632D01*
X172028271Y-69585689D01*
X171953073Y-69853621D01*
X171883582Y-70101010D01*
X171880669Y-70111375D01*
X171684347Y-70809875D01*
X171473112Y-70819273D01*
X171346117Y-70820412D01*
X171273328Y-70809095D01*
X171247395Y-70787523D01*
X171233709Y-70743271D01*
X171205215Y-70647123D01*
X171164087Y-70506636D01*
X171112499Y-70329363D01*
X171052626Y-70122859D01*
X170986641Y-69894680D01*
X170916719Y-69652381D01*
X170845035Y-69403515D01*
X170773762Y-69155639D01*
X170705076Y-68916307D01*
X170641150Y-68693074D01*
X170584159Y-68493496D01*
X170536277Y-68325126D01*
X170499679Y-68195520D01*
X170476538Y-68112233D01*
X170469000Y-68082921D01*
X170497325Y-68071128D01*
X170568667Y-68064235D01*
X170605943Y-68063500D01*
X170742886Y-68063500D01*
X171085462Y-69277937D01*
X171085462Y-69277937D01*
G37*
X171085462Y-69277937D02*
X171161385Y-69545981D01*
X171232764Y-69795878D01*
X171297602Y-70020790D01*
X171353903Y-70213884D01*
X171399669Y-70368322D01*
X171432903Y-70477268D01*
X171451608Y-70533886D01*
X171454035Y-70539551D01*
X171475707Y-70558685D01*
X171495318Y-70522623D01*
X171503810Y-70491926D01*
X171517552Y-70440511D01*
X171546342Y-70335334D01*
X171588133Y-70183792D01*
X171640877Y-69993277D01*
X171702526Y-69771185D01*
X171771034Y-69524909D01*
X171844352Y-69261846D01*
X171850935Y-69238250D01*
X172174281Y-68079375D01*
X172608759Y-68079375D01*
X172933437Y-69250170D01*
X173006864Y-69515150D01*
X173075564Y-69763458D01*
X173137537Y-69987833D01*
X173190781Y-70181015D01*
X173233297Y-70335745D01*
X173263083Y-70444762D01*
X173278140Y-70500807D01*
X173278917Y-70503846D01*
X173297917Y-70556481D01*
X173317786Y-70551386D01*
X173324899Y-70539551D01*
X173339011Y-70499389D01*
X173368479Y-70405056D01*
X173411258Y-70263447D01*
X173465303Y-70081460D01*
X173528569Y-69865991D01*
X173599010Y-69623938D01*
X173674581Y-69362198D01*
X173691953Y-69301750D01*
X173768196Y-69037574D01*
X173839687Y-68792446D01*
X173904405Y-68573102D01*
X173960330Y-68386284D01*
X174005438Y-68238731D01*
X174037709Y-68137182D01*
X174055121Y-68088375D01*
X174056849Y-68085276D01*
X174100522Y-68071181D01*
X174180949Y-68067899D01*
X174207882Y-68069401D01*
X174335891Y-68079375D01*
X173930052Y-69444625D01*
X173524212Y-70809875D01*
X173306293Y-70818990D01*
X173088375Y-70828105D01*
X172757526Y-69612490D01*
X172684287Y-69344251D01*
X172615625Y-69094422D01*
X172553448Y-68869822D01*
X172499663Y-68677271D01*
X172456180Y-68523587D01*
X172424904Y-68415591D01*
X172407745Y-68360102D01*
X172405685Y-68354813D01*
X172391024Y-68370047D01*
X172363006Y-68437902D01*
X172324638Y-68549645D01*
X172278925Y-68696541D01*
X172230842Y-68862813D01*
X172172881Y-69069868D01*
X172103449Y-69317632D01*
X172028271Y-69585689D01*
X171953073Y-69853621D01*
X171883582Y-70101010D01*
X171880669Y-70111375D01*
X171684347Y-70809875D01*
X171473112Y-70819273D01*
X171346117Y-70820412D01*
X171273328Y-70809095D01*
X171247395Y-70787523D01*
X171233709Y-70743271D01*
X171205215Y-70647123D01*
X171164087Y-70506636D01*
X171112499Y-70329363D01*
X171052626Y-70122859D01*
X170986641Y-69894680D01*
X170916719Y-69652381D01*
X170845035Y-69403515D01*
X170773762Y-69155639D01*
X170705076Y-68916307D01*
X170641150Y-68693074D01*
X170584159Y-68493496D01*
X170536277Y-68325126D01*
X170499679Y-68195520D01*
X170476538Y-68112233D01*
X170469000Y-68082921D01*
X170497325Y-68071128D01*
X170568667Y-68064235D01*
X170605943Y-68063500D01*
X170742886Y-68063500D01*
X171085462Y-69277937D01*
G36*
X184089750Y-70825750D02*
X183827634Y-70825750D01*
X183847942Y-70698750D01*
X183856576Y-70619762D01*
X183853682Y-70575317D01*
X183849950Y-70571750D01*
X183819701Y-70593710D01*
X183767656Y-70648156D01*
X183753286Y-70664880D01*
X183640646Y-70753484D01*
X183484220Y-70812523D01*
X183298028Y-70838709D01*
X183096090Y-70828759D01*
X183070668Y-70824848D01*
X182887515Y-70775296D01*
X182747081Y-70696774D01*
X182672721Y-70617492D01*
X182614391Y-70488907D01*
X182570662Y-70308511D01*
X182543410Y-70086704D01*
X182534495Y-69851000D01*
X182535405Y-69825625D01*
X182805465Y-69825625D01*
X182810318Y-70065810D01*
X182827644Y-70250992D01*
X182860506Y-70388967D01*
X182911971Y-70487532D01*
X182985103Y-70554483D01*
X183082967Y-70597616D01*
X183112137Y-70605714D01*
X183235218Y-70621494D01*
X183377123Y-70617209D01*
X183513497Y-70595658D01*
X183619988Y-70559639D01*
X183645250Y-70544456D01*
X183710005Y-70489280D01*
X183756826Y-70425214D01*
X183788467Y-70341417D01*
X183807685Y-70227046D01*
X183817235Y-70071256D01*
X183819873Y-69863207D01*
X183819875Y-69857375D01*
X183817473Y-69648924D01*
X183808323Y-69492784D01*
X183789507Y-69377885D01*
X183758107Y-69293151D01*
X183711207Y-69227512D01*
X183645889Y-69169895D01*
X183636970Y-69163213D01*
X183528312Y-69113040D01*
X183384145Y-69086077D01*
X183228577Y-69083669D01*
X183085714Y-69107159D01*
X183026323Y-69129158D01*
X182946054Y-69177084D01*
X182887280Y-69239989D01*
X182846916Y-69327597D01*
X182821880Y-69449630D01*
X182809088Y-69615812D01*
X182805465Y-69825625D01*
X182535405Y-69825625D01*
X182544600Y-69569309D01*
X182577817Y-69342822D01*
X182637074Y-69166534D01*
X182725297Y-69035443D01*
X182845412Y-68944546D01*
X183000347Y-68888840D01*
X183107993Y-68870603D01*
X183300307Y-68865068D01*
X183481699Y-68891057D01*
X183635753Y-68944656D01*
X183746055Y-69021952D01*
X183746999Y-69022958D01*
X183835750Y-69117965D01*
X183835750Y-68063500D01*
X184089750Y-68063500D01*
X184089750Y-70825750D01*
X184089750Y-70825750D01*
G37*
X184089750Y-70825750D02*
X183827634Y-70825750D01*
X183847942Y-70698750D01*
X183856576Y-70619762D01*
X183853682Y-70575317D01*
X183849950Y-70571750D01*
X183819701Y-70593710D01*
X183767656Y-70648156D01*
X183753286Y-70664880D01*
X183640646Y-70753484D01*
X183484220Y-70812523D01*
X183298028Y-70838709D01*
X183096090Y-70828759D01*
X183070668Y-70824848D01*
X182887515Y-70775296D01*
X182747081Y-70696774D01*
X182672721Y-70617492D01*
X182614391Y-70488907D01*
X182570662Y-70308511D01*
X182543410Y-70086704D01*
X182534495Y-69851000D01*
X182535405Y-69825625D01*
X182805465Y-69825625D01*
X182810318Y-70065810D01*
X182827644Y-70250992D01*
X182860506Y-70388967D01*
X182911971Y-70487532D01*
X182985103Y-70554483D01*
X183082967Y-70597616D01*
X183112137Y-70605714D01*
X183235218Y-70621494D01*
X183377123Y-70617209D01*
X183513497Y-70595658D01*
X183619988Y-70559639D01*
X183645250Y-70544456D01*
X183710005Y-70489280D01*
X183756826Y-70425214D01*
X183788467Y-70341417D01*
X183807685Y-70227046D01*
X183817235Y-70071256D01*
X183819873Y-69863207D01*
X183819875Y-69857375D01*
X183817473Y-69648924D01*
X183808323Y-69492784D01*
X183789507Y-69377885D01*
X183758107Y-69293151D01*
X183711207Y-69227512D01*
X183645889Y-69169895D01*
X183636970Y-69163213D01*
X183528312Y-69113040D01*
X183384145Y-69086077D01*
X183228577Y-69083669D01*
X183085714Y-69107159D01*
X183026323Y-69129158D01*
X182946054Y-69177084D01*
X182887280Y-69239989D01*
X182846916Y-69327597D01*
X182821880Y-69449630D01*
X182809088Y-69615812D01*
X182805465Y-69825625D01*
X182535405Y-69825625D01*
X182544600Y-69569309D01*
X182577817Y-69342822D01*
X182637074Y-69166534D01*
X182725297Y-69035443D01*
X182845412Y-68944546D01*
X183000347Y-68888840D01*
X183107993Y-68870603D01*
X183300307Y-68865068D01*
X183481699Y-68891057D01*
X183635753Y-68944656D01*
X183746055Y-69021952D01*
X183746999Y-69022958D01*
X183835750Y-69117965D01*
X183835750Y-68063500D01*
X184089750Y-68063500D01*
X184089750Y-70825750D01*
G36*
X177725691Y-68886284D02*
X177911094Y-68920748D01*
X178047426Y-68979751D01*
X178140151Y-69065174D01*
X178167009Y-69108608D01*
X178198394Y-69196979D01*
X178228460Y-69329274D01*
X178253988Y-69485944D01*
X178271762Y-69647443D01*
X178278519Y-69785937D01*
X178279500Y-69905000D01*
X176936881Y-69905000D01*
X176958007Y-70132308D01*
X176982773Y-70313799D01*
X177024273Y-70444700D01*
X177091689Y-70532746D01*
X177194200Y-70585673D01*
X177340987Y-70611218D01*
X177533375Y-70617156D01*
X177706003Y-70612069D01*
X177826831Y-70594862D01*
X177907200Y-70560130D01*
X177958453Y-70502470D01*
X177991934Y-70416476D01*
X177997315Y-70396116D01*
X178022324Y-70309483D01*
X178052310Y-70268071D01*
X178106432Y-70255205D01*
X178160327Y-70254250D01*
X178287615Y-70254250D01*
X178266774Y-70384582D01*
X178219830Y-70559111D01*
X178138800Y-70683165D01*
X178016427Y-70763823D01*
X177845452Y-70808167D01*
X177830395Y-70810236D01*
X177660541Y-70830201D01*
X177529353Y-70839051D01*
X177413090Y-70837419D01*
X177288015Y-70825937D01*
X177279375Y-70824908D01*
X177116232Y-70798954D01*
X176999107Y-70762320D01*
X176910602Y-70707602D01*
X176843105Y-70639241D01*
X176773783Y-70516187D01*
X176726070Y-70336871D01*
X176699791Y-70100179D01*
X176694769Y-69804996D01*
X176697123Y-69712468D01*
X176698845Y-69682750D01*
X176938683Y-69682750D01*
X178026054Y-69682750D01*
X178005493Y-69500187D01*
X177977763Y-69335806D01*
X177934062Y-69223396D01*
X177868093Y-69152166D01*
X177779386Y-69112905D01*
X177624907Y-69086461D01*
X177451157Y-69081921D01*
X177286052Y-69098551D01*
X177173204Y-69128847D01*
X177086817Y-69174530D01*
X177028616Y-69238584D01*
X176990459Y-69335382D01*
X176964203Y-69479297D01*
X176961107Y-69503274D01*
X176938683Y-69682750D01*
X176698845Y-69682750D01*
X176710520Y-69481356D01*
X176735859Y-69303558D01*
X176777009Y-69169405D01*
X176837836Y-69069224D01*
X176922210Y-68993347D01*
X177003470Y-68946470D01*
X177082338Y-68912086D01*
X177161780Y-68890419D01*
X177259585Y-68878813D01*
X177393541Y-68874612D01*
X177485750Y-68874483D01*
X177725691Y-68886284D01*
X177725691Y-68886284D01*
G37*
X177725691Y-68886284D02*
X177911094Y-68920748D01*
X178047426Y-68979751D01*
X178140151Y-69065174D01*
X178167009Y-69108608D01*
X178198394Y-69196979D01*
X178228460Y-69329274D01*
X178253988Y-69485944D01*
X178271762Y-69647443D01*
X178278519Y-69785937D01*
X178279500Y-69905000D01*
X176936881Y-69905000D01*
X176958007Y-70132308D01*
X176982773Y-70313799D01*
X177024273Y-70444700D01*
X177091689Y-70532746D01*
X177194200Y-70585673D01*
X177340987Y-70611218D01*
X177533375Y-70617156D01*
X177706003Y-70612069D01*
X177826831Y-70594862D01*
X177907200Y-70560130D01*
X177958453Y-70502470D01*
X177991934Y-70416476D01*
X177997315Y-70396116D01*
X178022324Y-70309483D01*
X178052310Y-70268071D01*
X178106432Y-70255205D01*
X178160327Y-70254250D01*
X178287615Y-70254250D01*
X178266774Y-70384582D01*
X178219830Y-70559111D01*
X178138800Y-70683165D01*
X178016427Y-70763823D01*
X177845452Y-70808167D01*
X177830395Y-70810236D01*
X177660541Y-70830201D01*
X177529353Y-70839051D01*
X177413090Y-70837419D01*
X177288015Y-70825937D01*
X177279375Y-70824908D01*
X177116232Y-70798954D01*
X176999107Y-70762320D01*
X176910602Y-70707602D01*
X176843105Y-70639241D01*
X176773783Y-70516187D01*
X176726070Y-70336871D01*
X176699791Y-70100179D01*
X176694769Y-69804996D01*
X176697123Y-69712468D01*
X176698845Y-69682750D01*
X176938683Y-69682750D01*
X178026054Y-69682750D01*
X178005493Y-69500187D01*
X177977763Y-69335806D01*
X177934062Y-69223396D01*
X177868093Y-69152166D01*
X177779386Y-69112905D01*
X177624907Y-69086461D01*
X177451157Y-69081921D01*
X177286052Y-69098551D01*
X177173204Y-69128847D01*
X177086817Y-69174530D01*
X177028616Y-69238584D01*
X176990459Y-69335382D01*
X176964203Y-69479297D01*
X176961107Y-69503274D01*
X176938683Y-69682750D01*
X176698845Y-69682750D01*
X176710520Y-69481356D01*
X176735859Y-69303558D01*
X176777009Y-69169405D01*
X176837836Y-69069224D01*
X176922210Y-68993347D01*
X177003470Y-68946470D01*
X177082338Y-68912086D01*
X177161780Y-68890419D01*
X177259585Y-68878813D01*
X177393541Y-68874612D01*
X177485750Y-68874483D01*
X177725691Y-68886284D01*
G36*
X176438000Y-70825750D02*
X176326875Y-70825750D01*
X176256366Y-70822092D01*
X176224571Y-70799066D01*
X176216076Y-70738595D01*
X176215750Y-70695392D01*
X176215750Y-70565034D01*
X176128359Y-70658586D01*
X176002772Y-70750688D01*
X175834835Y-70811735D01*
X175639388Y-70838271D01*
X175431266Y-70826843D01*
X175415932Y-70824421D01*
X175245662Y-70778215D01*
X175115467Y-70698501D01*
X175019689Y-70578317D01*
X174952671Y-70410701D01*
X174910707Y-70202735D01*
X174888441Y-69958236D01*
X174888866Y-69820171D01*
X175161196Y-69820171D01*
X175168315Y-70076818D01*
X175190097Y-70274946D01*
X175227177Y-70417964D01*
X175280194Y-70509287D01*
X175291934Y-70520908D01*
X175394186Y-70577686D01*
X175535228Y-70611134D01*
X175694372Y-70620163D01*
X175850932Y-70603683D01*
X175984220Y-70560606D01*
X175990053Y-70557657D01*
X176054064Y-70514650D01*
X176101294Y-70454958D01*
X176134576Y-70368789D01*
X176156743Y-70246351D01*
X176170630Y-70077853D01*
X176177480Y-69909985D01*
X176179183Y-69660646D01*
X176164684Y-69466748D01*
X176130080Y-69321434D01*
X176071463Y-69217849D01*
X175984928Y-69149134D01*
X175866570Y-69108434D01*
X175712483Y-69088891D01*
X175709678Y-69088711D01*
X175521768Y-69093836D01*
X175378888Y-69138364D01*
X175273850Y-69225564D01*
X175220160Y-69311334D01*
X175193605Y-69378405D01*
X175176090Y-69459513D01*
X175165992Y-69568678D01*
X175161686Y-69719921D01*
X175161196Y-69820171D01*
X174888866Y-69820171D01*
X174889186Y-69716379D01*
X174911209Y-69489212D01*
X174952775Y-69288788D01*
X175012151Y-69127156D01*
X175080290Y-69023848D01*
X175188150Y-68946978D01*
X175333227Y-68895565D01*
X175500619Y-68869255D01*
X175675425Y-68867694D01*
X175842743Y-68890528D01*
X175987672Y-68937402D01*
X176095309Y-69007964D01*
X176128492Y-69048748D01*
X176168250Y-69097722D01*
X176191637Y-69111250D01*
X176199661Y-69081245D01*
X176206555Y-68998208D01*
X176211836Y-68872601D01*
X176215022Y-68714889D01*
X176215750Y-68587375D01*
X176215750Y-68063500D01*
X176438000Y-68063500D01*
X176438000Y-70825750D01*
X176438000Y-70825750D01*
G37*
X176438000Y-70825750D02*
X176326875Y-70825750D01*
X176256366Y-70822092D01*
X176224571Y-70799066D01*
X176216076Y-70738595D01*
X176215750Y-70695392D01*
X176215750Y-70565034D01*
X176128359Y-70658586D01*
X176002772Y-70750688D01*
X175834835Y-70811735D01*
X175639388Y-70838271D01*
X175431266Y-70826843D01*
X175415932Y-70824421D01*
X175245662Y-70778215D01*
X175115467Y-70698501D01*
X175019689Y-70578317D01*
X174952671Y-70410701D01*
X174910707Y-70202735D01*
X174888441Y-69958236D01*
X174888866Y-69820171D01*
X175161196Y-69820171D01*
X175168315Y-70076818D01*
X175190097Y-70274946D01*
X175227177Y-70417964D01*
X175280194Y-70509287D01*
X175291934Y-70520908D01*
X175394186Y-70577686D01*
X175535228Y-70611134D01*
X175694372Y-70620163D01*
X175850932Y-70603683D01*
X175984220Y-70560606D01*
X175990053Y-70557657D01*
X176054064Y-70514650D01*
X176101294Y-70454958D01*
X176134576Y-70368789D01*
X176156743Y-70246351D01*
X176170630Y-70077853D01*
X176177480Y-69909985D01*
X176179183Y-69660646D01*
X176164684Y-69466748D01*
X176130080Y-69321434D01*
X176071463Y-69217849D01*
X175984928Y-69149134D01*
X175866570Y-69108434D01*
X175712483Y-69088891D01*
X175709678Y-69088711D01*
X175521768Y-69093836D01*
X175378888Y-69138364D01*
X175273850Y-69225564D01*
X175220160Y-69311334D01*
X175193605Y-69378405D01*
X175176090Y-69459513D01*
X175165992Y-69568678D01*
X175161686Y-69719921D01*
X175161196Y-69820171D01*
X174888866Y-69820171D01*
X174889186Y-69716379D01*
X174911209Y-69489212D01*
X174952775Y-69288788D01*
X175012151Y-69127156D01*
X175080290Y-69023848D01*
X175188150Y-68946978D01*
X175333227Y-68895565D01*
X175500619Y-68869255D01*
X175675425Y-68867694D01*
X175842743Y-68890528D01*
X175987672Y-68937402D01*
X176095309Y-69007964D01*
X176128492Y-69048748D01*
X176168250Y-69097722D01*
X176191637Y-69111250D01*
X176199661Y-69081245D01*
X176206555Y-68998208D01*
X176211836Y-68872601D01*
X176215022Y-68714889D01*
X176215750Y-68587375D01*
X176215750Y-68063500D01*
X176438000Y-68063500D01*
X176438000Y-70825750D01*
G04 #@! TD*
M02*
