  0
SECTION
  2
HEADER
  9
$ACADVER
  1
AC1009
  0
ENDSEC
  0
SECTION
  2
ENTITIES
  0
POLYLINE
  8
FR-4 (LOSSY)
 66
1
 39
0
 10
0.000000
 20
0.000000
 30
0.000000
 70
1
  0
VERTEX
  8
FR-4 (LOSSY)
 39
0
 10
0.000000
 20
0.000000
 30
0.000000
 70
0
 42
0
  0
VERTEX
  8
FR-4 (LOSSY)
 39
0
 10
85.600000
 20
0.000000
 30
0.000000
 70
0
 42
0
  0
VERTEX
  8
FR-4 (LOSSY)
 39
0
 10
85.600000
 20
53.980000
 30
0.000000
 70
0
 42
0
  0
VERTEX
  8
FR-4 (LOSSY)
 39
0
 10
0.000000
 20
53.980000
 30
0.000000
 70
0
 42
0
  0
SEQEND
  8
FR-4 (LOSSY)
  0
POLYLINE
  8
COPPER
 66
1
 39
0
 10
0.000000
 20
0.000000
 30
0.000000
 70
4
 75
5
  0
VERTEX
  8
COPPER
 39
0
 10
3.750000
 20
49.480000
 30
0.000000
 70
16
 42
0
  0
VERTEX
  8
COPPER
 39
0
 10
14.250000
 20
49.480000
 30
0.000000
 70
8
 42
0
  0
VERTEX
  8
COPPER
 39
0
 10
14.221270
 20
48.838835
 30
0.000000
 70
8
 42
0
  0
VERTEX
  8
COPPER
 39
0
 10
14.091016
 20
48.050100
 30
0.000000
 70
8
 42
0
  0
VERTEX
  8
COPPER
 39
0
 10
13.830231
 20
47.294919
 30
0.000000
 70
8
 42
0
  0
VERTEX
  8
COPPER
 39
0
 10
13.418421
 20
46.610873
 30
0.000000
 70
8
 42
0
  0
VERTEX
  8
COPPER
 39
0
 10
12.859940
 20
46.040428
 30
0.000000
 70
8
 42
0
  0
VERTEX
  8
COPPER
 39
0
 10
12.188771
 20
45.607458
 30
0.000000
 70
8
 42
0
  0
VERTEX
  8
COPPER
 39
0
 10
11.448259
 20
45.306778
 30
0.000000
 70
8
 42
0
  0
VERTEX
  8
COPPER
 39
0
 10
10.671528
 20
45.116870
 30
0.000000
 70
8
 42
0
  0
VERTEX
  8
COPPER
 39
0
 10
9.878281
 20
45.014431
 30
0.000000
 70
8
 42
0
  0
VERTEX
  8
COPPER
 39
0
 10
9.079053
 20
44.980257
 30
0.000000
 70
8
 42
0
  0
VERTEX
  8
COPPER
 39
0
 10
8.279396
 20
45.002787
 30
0.000000
 70
8
 42
0
  0
VERTEX
  8
COPPER
 39
0
 10
7.484341
 20
45.090373
 30
0.000000
 70
8
 42
0
  0
VERTEX
  8
COPPER
 39
0
 10
6.703145
 20
45.261244
 30
0.000000
 70
8
 42
0
  0
VERTEX
  8
COPPER
 39
0
 10
5.953312
 20
45.538120
 30
0.000000
 70
8
 42
0
  0
VERTEX
  8
COPPER
 39
0
 10
5.265157
 20
45.943759
 30
0.000000
 70
8
 42
0
  0
VERTEX
  8
COPPER
 39
0
 10
4.681030
 20
46.487978
 30
0.000000
 70
8
 42
0
  0
VERTEX
  8
COPPER
 39
0
 10
4.238843
 20
47.152711
 30
0.000000
 70
8
 42
0
  0
VERTEX
  8
COPPER
 39
0
 10
3.949315
 20
47.897231
 30
0.000000
 70
8
 42
0
  0
VERTEX
  8
COPPER
 39
0
 10
3.795443
 20
48.681617
 30
0.000000
 70
8
 42
0
  0
VERTEX
  8
COPPER
 39
0
 10
3.750000
 20
49.480000
 30
0.000000
 70
8
 42
0
  0
VERTEX
  8
COPPER
 39
0
 10
3.750000
 20
44.980000
 30
0.000000
 70
16
 42
0
  0
VERTEX
  8
COPPER
 39
0
 10
14.250000
 20
44.980000
 30
0.000000
 70
16
 42
0
  0
VERTEX
  8
COPPER
 39
0
 10
14.250000
 20
49.480000
 30
0.000000
 70
16
 42
0
  0
SEQEND
  0
POLYLINE
  8
COPPER
 66
1
 39
0
 10
0.000000
 20
0.000000
 30
0.000000
 70
4
 75
5
  0
VERTEX
  8
COPPER
 39
0
 10
14.250000
 20
49.480000
 30
0.000000
 70
16
 42
0
  0
VERTEX
  8
COPPER
 39
0
 10
3.750000
 20
49.480000
 30
0.000000
 70
8
 42
0
  0
VERTEX
  8
COPPER
 39
0
 10
3.750437
 20
49.538549
 30
0.000000
 70
8
 42
0
  0
VERTEX
  8
COPPER
 39
0
 10
3.827718
 20
50.164883
 30
0.000000
 70
8
 42
0
  0
VERTEX
  8
COPPER
 39
0
 10
3.962620
 20
50.500716
 30
0.000000
 70
8
 42
0
  0
VERTEX
  8
COPPER
 39
0
 10
4.117159
 20
50.704301
 30
0.000000
 70
8
 42
0
  0
VERTEX
  8
COPPER
 39
0
 10
4.297688
 20
50.842953
 30
0.000000
 70
8
 42
0
  0
VERTEX
  8
COPPER
 39
0
 10
4.529892
 20
50.937970
 30
0.000000
 70
8
 42
0
  0
VERTEX
  8
COPPER
 39
0
 10
4.952167
 20
50.980000
 30
0.000000
 70
8
 42
0
  0
VERTEX
  8
COPPER
 39
0
 10
5.584822
 20
50.980000
 30
0.000000
 70
8
 42
0
  0
VERTEX
  8
COPPER
 39
0
 10
6.217476
 20
50.980000
 30
0.000000
 70
8
 42
0
  0
VERTEX
  8
COPPER
 39
0
 10
6.850131
 20
50.980000
 30
0.000000
 70
8
 42
0
  0
VERTEX
  8
COPPER
 39
0
 10
7.482786
 20
50.980000
 30
0.000000
 70
8
 42
0
  0
VERTEX
  8
COPPER
 39
0
 10
8.115440
 20
50.980000
 30
0.000000
 70
8
 42
0
  0
VERTEX
  8
COPPER
 39
0
 10
8.748095
 20
50.980000
 30
0.000000
 70
8
 42
0
  0
VERTEX
  8
COPPER
 39
0
 10
9.380749
 20
50.980000
 30
0.000000
 70
8
 42
0
  0
VERTEX
  8
COPPER
 39
0
 10
10.013404
 20
50.980000
 30
0.000000
 70
8
 42
0
  0
VERTEX
  8
COPPER
 39
0
 10
10.646058
 20
50.980000
 30
0.000000
 70
8
 42
0
  0
VERTEX
  8
COPPER
 39
0
 10
11.278713
 20
50.980000
 30
0.000000
 70
8
 42
0
  0
VERTEX
  8
COPPER
 39
0
 10
11.911367
 20
50.980000
 30
0.000000
 70
8
 42
0
  0
VERTEX
  8
COPPER
 39
0
 10
12.544022
 20
50.980000
 30
0.000000
 70
8
 42
0
  0
VERTEX
  8
COPPER
 39
0
 10
13.176668
 20
50.979190
 30
0.000000
 70
8
 42
0
  0
VERTEX
  8
COPPER
 39
0
 10
13.502454
 20
50.928751
 30
0.000000
 70
8
 42
0
  0
VERTEX
  8
COPPER
 39
0
 10
13.726200
 20
50.828646
 30
0.000000
 70
8
 42
0
  0
VERTEX
  8
COPPER
 39
0
 10
13.902628
 20
50.683863
 30
0.000000
 70
8
 42
0
  0
VERTEX
  8
COPPER
 39
0
 10
14.054858
 20
50.469266
 30
0.000000
 70
8
 42
0
  0
VERTEX
  8
COPPER
 39
0
 10
14.186497
 20
50.108086
 30
0.000000
 70
8
 42
0
  0
VERTEX
  8
COPPER
 39
0
 10
14.250000
 20
49.480000
 30
0.000000
 70
8
 42
0
  0
VERTEX
  8
COPPER
 39
0
 10
14.250000
 20
50.980000
 30
0.000000
 70
16
 42
0
  0
VERTEX
  8
COPPER
 39
0
 10
12.000000
 20
50.980000
 30
0.000000
 70
16
 42
0
  0
VERTEX
  8
COPPER
 39
0
 10
6.000000
 20
50.980000
 30
0.000000
 70
16
 42
0
  0
VERTEX
  8
COPPER
 39
0
 10
3.750000
 20
50.980000
 30
0.000000
 70
16
 42
0
  0
VERTEX
  8
COPPER
 39
0
 10
3.750000
 20
49.480000
 30
0.000000
 70
16
 42
0
  0
SEQEND
  0
POLYLINE
  8
COPPER
 66
1
 39
0
 10
0.000000
 20
0.000000
 30
0.000000
 70
0
  0
VERTEX
  8
COPPER
 39
0
 10
14.250000
 20
49.480000
 30
0.000000
 70
0
 42
0
  0
VERTEX
  8
COPPER
 39
0
 10
15.750000
 20
49.480000
 30
0.000000
 70
0
 42
0
  0
SEQEND
  0
POLYLINE
  8
COPPER
 66
1
 39
0
 10
0.000000
 20
0.000000
 30
0.000000
 70
4
 75
5
  0
VERTEX
  8
COPPER
 39
0
 10
2.250000
 20
49.480000
 30
0.000000
 70
16
 42
0
  0
VERTEX
  8
COPPER
 39
0
 10
15.750000
 20
49.480000
 30
0.000000
 70
8
 42
0
  0
VERTEX
  8
COPPER
 39
0
 10
15.748868
 20
49.760995
 30
0.000000
 70
8
 42
0
  0
VERTEX
  8
COPPER
 39
0
 10
15.720285
 20
50.823839
 30
0.000000
 70
8
 42
0
  0
VERTEX
  8
COPPER
 39
0
 10
15.636619
 20
51.883643
 30
0.000000
 70
8
 42
0
  0
VERTEX
  8
COPPER
 39
0
 10
15.449506
 20
52.929429
 30
0.000000
 70
8
 42
0
  0
VERTEX
  8
COPPER
 39
0
 10
15.202469
 20
53.568588
 30
0.000000
 70
8
 42
0
  0
VERTEX
  8
COPPER
 39
0
 10
15.030176
 20
53.799824
 30
0.000000
 70
8
 42
0
  0
VERTEX
  8
COPPER
 39
0
 10
14.891000
 20
53.908350
 30
0.000000
 70
8
 42
0
  0
VERTEX
  8
COPPER
 39
0
 10
14.761875
 20
53.962250
 30
0.000000
 70
8
 42
0
  0
VERTEX
  8
COPPER
 39
0
 10
13.978496
 20
53.980000
 30
0.000000
 70
8
 42
0
  0
VERTEX
  8
COPPER
 39
0
 10
12.915196
 20
53.980000
 30
0.000000
 70
8
 42
0
  0
VERTEX
  8
COPPER
 39
0
 10
11.851896
 20
53.980000
 30
0.000000
 70
8
 42
0
  0
VERTEX
  8
COPPER
 39
0
 10
10.788596
 20
53.980000
 30
0.000000
 70
8
 42
0
  0
VERTEX
  8
COPPER
 39
0
 10
9.725296
 20
53.980000
 30
0.000000
 70
8
 42
0
  0
VERTEX
  8
COPPER
 39
0
 10
8.661996
 20
53.980000
 30
0.000000
 70
8
 42
0
  0
VERTEX
  8
COPPER
 39
0
 10
7.598696
 20
53.980000
 30
0.000000
 70
8
 42
0
  0
VERTEX
  8
COPPER
 39
0
 10
6.535396
 20
53.980000
 30
0.000000
 70
8
 42
0
  0
VERTEX
  8
COPPER
 39
0
 10
5.472096
 20
53.980000
 30
0.000000
 70
8
 42
0
  0
VERTEX
  8
COPPER
 39
0
 10
4.408796
 20
53.980000
 30
0.000000
 70
8
 42
0
  0
VERTEX
  8
COPPER
 39
0
 10
3.345510
 20
53.979217
 30
0.000000
 70
8
 42
0
  0
VERTEX
  8
COPPER
 39
0
 10
3.211736
 20
53.954414
 30
0.000000
 70
8
 42
0
  0
VERTEX
  8
COPPER
 39
0
 10
3.082026
 20
53.891784
 30
0.000000
 70
8
 42
0
  0
VERTEX
  8
COPPER
 39
0
 10
2.938339
 20
53.766560
 30
0.000000
 70
8
 42
0
  0
VERTEX
  8
COPPER
 39
0
 10
2.755071
 20
53.490066
 30
0.000000
 70
8
 42
0
  0
VERTEX
  8
COPPER
 39
0
 10
2.485564
 20
52.656070
 30
0.000000
 70
8
 42
0
  0
VERTEX
  8
COPPER
 39
0
 10
2.334086
 20
51.604183
 30
0.000000
 70
8
 42
0
  0
VERTEX
  8
COPPER
 39
0
 10
2.267880
 20
50.543092
 30
0.000000
 70
8
 42
0
  0
VERTEX
  8
COPPER
 39
0
 10
2.250000
 20
49.480000
 30
0.000000
 70
8
 42
0
  0
VERTEX
  8
COPPER
 39
0
 10
2.250000
 20
53.980000
 30
0.000000
 70
16
 42
0
  0
VERTEX
  8
COPPER
 39
0
 10
4.500000
 20
53.980000
 30
0.000000
 70
16
 42
0
  0
VERTEX
  8
COPPER
 39
0
 10
13.500000
 20
53.980000
 30
0.000000
 70
16
 42
0
  0
VERTEX
  8
COPPER
 39
0
 10
15.750000
 20
53.980000
 30
0.000000
 70
16
 42
0
  0
VERTEX
  8
COPPER
 39
0
 10
15.750000
 20
49.480000
 30
0.000000
 70
16
 42
0
  0
SEQEND
  0
POLYLINE
  8
COPPER
 66
1
 39
0
 10
0.000000
 20
0.000000
 30
0.000000
 70
4
 75
5
  0
VERTEX
  8
COPPER
 39
0
 10
8.250000
 20
43.499625
 30
0.000000
 70
16
 42
0
  0
VERTEX
  8
COPPER
 39
0
 10
2.250000
 20
49.480000
 30
0.000000
 70
8
 42
0
  0
VERTEX
  8
COPPER
 39
0
 10
2.257336
 20
49.090905
 30
0.000000
 70
8
 42
0
  0
VERTEX
  8
COPPER
 39
0
 10
2.288592
 20
48.606941
 30
0.000000
 70
8
 42
0
  0
VERTEX
  8
COPPER
 39
0
 10
2.347329
 20
48.125556
 30
0.000000
 70
8
 42
0
  0
VERTEX
  8
COPPER
 39
0
 10
2.436980
 20
47.648981
 30
0.000000
 70
8
 42
0
  0
VERTEX
  8
COPPER
 39
0
 10
2.561131
 20
47.180235
 30
0.000000
 70
8
 42
0
  0
VERTEX
  8
COPPER
 39
0
 10
2.723244
 20
46.723261
 30
0.000000
 70
8
 42
0
  0
VERTEX
  8
COPPER
 39
0
 10
2.926210
 20
46.282942
 30
0.000000
 70
8
 42
0
  0
VERTEX
  8
COPPER
 39
0
 10
3.171759
 20
45.864908
 30
0.000000
 70
8
 42
0
  0
VERTEX
  8
COPPER
 39
0
 10
3.459880
 20
45.475019
 30
0.000000
 70
8
 42
0
  0
VERTEX
  8
COPPER
 39
0
 10
3.788478
 20
45.118586
 30
0.000000
 70
8
 42
0
  0
VERTEX
  8
COPPER
 39
0
 10
4.153511
 20
44.799551
 30
0.000000
 70
8
 42
0
  0
VERTEX
  8
COPPER
 39
0
 10
4.549588
 20
44.519946
 30
0.000000
 70
8
 42
0
  0
VERTEX
  8
COPPER
 39
0
 10
4.970816
 20
44.279837
 30
0.000000
 70
8
 42
0
  0
VERTEX
  8
COPPER
 39
0
 10
5.411557
 20
44.077688
 30
0.000000
 70
8
 42
0
  0
VERTEX
  8
COPPER
 39
0
 10
5.866895
 20
43.910917
 30
0.000000
 70
8
 42
0
  0
VERTEX
  8
COPPER
 39
0
 10
6.332814
 20
43.776427
 30
0.000000
 70
8
 42
0
  0
VERTEX
  8
COPPER
 39
0
 10
6.806179
 20
43.671008
 30
0.000000
 70
8
 42
0
  0
VERTEX
  8
COPPER
 39
0
 10
7.284606
 20
43.591570
 30
0.000000
 70
8
 42
0
  0
VERTEX
  8
COPPER
 39
0
 10
7.766316
 20
43.535286
 30
0.000000
 70
8
 42
0
  0
VERTEX
  8
COPPER
 39
0
 10
8.250000
 20
43.499625
 30
0.000000
 70
8
 42
0
  0
VERTEX
  8
COPPER
 39
0
 10
2.250000
 20
43.823146
 30
0.000000
 70
16
 42
0
  0
VERTEX
  8
COPPER
 39
0
 10
2.250000
 20
49.480000
 30
0.000000
 70
16
 42
0
  0
SEQEND
  0
POLYLINE
  8
COPPER
 66
1
 39
0
 10
0.000000
 20
0.000000
 30
0.000000
 70
0
  0
VERTEX
  8
COPPER
 39
0
 10
8.250000
 20
0.000000
 30
0.000000
 70
0
 42
0
  0
VERTEX
  8
COPPER
 39
0
 10
8.250000
 20
43.499625
 30
0.000000
 70
0
 42
0
  0
SEQEND
  0
POLYLINE
  8
COPPER
 66
1
 39
0
 10
0.000000
 20
0.000000
 30
0.000000
 70
0
  0
VERTEX
  8
COPPER
 39
0
 10
9.750000
 20
0.000000
 30
0.000000
 70
0
 42
0
  0
VERTEX
  8
COPPER
 39
0
 10
8.250000
 20
0.000000
 30
0.000000
 70
0
 42
0
  0
SEQEND
  0
POLYLINE
  8
COPPER
 66
1
 39
0
 10
0.000000
 20
0.000000
 30
0.000000
 70
0
  0
VERTEX
  8
COPPER
 39
0
 10
9.750000
 20
43.499625
 30
0.000000
 70
0
 42
0
  0
VERTEX
  8
COPPER
 39
0
 10
9.750000
 20
0.000000
 30
0.000000
 70
0
 42
0
  0
SEQEND
  0
POLYLINE
  8
COPPER
 66
1
 39
0
 10
0.000000
 20
0.000000
 30
0.000000
 70
4
 75
5
  0
VERTEX
  8
COPPER
 39
0
 10
13.100000
 20
44.316690
 30
0.000000
 70
16
 42
0
  0
VERTEX
  8
COPPER
 39
0
 10
9.750000
 20
43.499625
 30
0.000000
 70
8
 42
0
  0
VERTEX
  8
COPPER
 39
0
 10
9.890561
 20
43.507989
 30
0.000000
 70
8
 42
0
  0
VERTEX
  8
COPPER
 39
0
 10
10.065587
 20
43.520660
 30
0.000000
 70
8
 42
0
  0
VERTEX
  8
COPPER
 39
0
 10
10.240406
 20
43.535922
 30
0.000000
 70
8
 42
0
  0
VERTEX
  8
COPPER
 39
0
 10
10.414968
 20
43.553885
 30
0.000000
 70
8
 42
0
  0
VERTEX
  8
COPPER
 39
0
 10
10.589217
 20
43.574665
 30
0.000000
 70
8
 42
0
  0
VERTEX
  8
COPPER
 39
0
 10
10.763091
 20
43.598382
 30
0.000000
 70
8
 42
0
  0
VERTEX
  8
COPPER
 39
0
 10
10.936519
 20
43.625161
 30
0.000000
 70
8
 42
0
  0
VERTEX
  8
COPPER
 39
0
 10
11.109423
 20
43.655134
 30
0.000000
 70
8
 42
0
  0
VERTEX
  8
COPPER
 39
0
 10
11.281716
 20
43.688438
 30
0.000000
 70
8
 42
0
  0
VERTEX
  8
COPPER
 39
0
 10
11.453302
 20
43.725213
 30
0.000000
 70
8
 42
0
  0
VERTEX
  8
COPPER
 39
0
 10
11.624073
 20
43.765605
 30
0.000000
 70
8
 42
0
  0
VERTEX
  8
COPPER
 39
0
 10
11.793908
 20
43.809762
 30
0.000000
 70
8
 42
0
  0
VERTEX
  8
COPPER
 39
0
 10
11.962676
 20
43.857837
 30
0.000000
 70
8
 42
0
  0
VERTEX
  8
COPPER
 39
0
 10
12.130231
 20
43.909982
 30
0.000000
 70
8
 42
0
  0
VERTEX
  8
COPPER
 39
0
 10
12.296411
 20
43.966352
 30
0.000000
 70
8
 42
0
  0
VERTEX
  8
COPPER
 39
0
 10
12.461042
 20
44.027097
 30
0.000000
 70
8
 42
0
  0
VERTEX
  8
COPPER
 39
0
 10
12.623932
 20
44.092366
 30
0.000000
 70
8
 42
0
  0
VERTEX
  8
COPPER
 39
0
 10
12.784873
 20
44.162302
 30
0.000000
 70
8
 42
0
  0
VERTEX
  8
COPPER
 39
0
 10
12.943642
 20
44.237036
 30
0.000000
 70
8
 42
0
  0
VERTEX
  8
COPPER
 39
0
 10
13.100000
 20
44.316690
 30
0.000000
 70
8
 42
0
  0
VERTEX
  8
COPPER
 39
0
 10
11.762520
 20
43.608140
 30
0.000000
 70
16
 42
0
  0
VERTEX
  8
COPPER
 39
0
 10
9.750000
 20
43.499625
 30
0.000000
 70
16
 42
0
  0
SEQEND
  0
POLYLINE
  8
COPPER
 66
1
 39
0
 10
0.000000
 20
0.000000
 30
0.000000
 70
0
  0
VERTEX
  8
COPPER
 39
0
 10
13.100000
 20
41.480000
 30
0.000000
 70
0
 42
0
  0
VERTEX
  8
COPPER
 39
0
 10
13.100000
 20
44.316690
 30
0.000000
 70
0
 42
0
  0
SEQEND
  0
POLYLINE
  8
COPPER
 66
1
 39
0
 10
0.000000
 20
0.000000
 30
0.000000
 70
0
  0
VERTEX
  8
COPPER
 39
0
 10
13.900000
 20
41.480000
 30
0.000000
 70
0
 42
0
  0
VERTEX
  8
COPPER
 39
0
 10
13.100000
 20
41.480000
 30
0.000000
 70
0
 42
0
  0
SEQEND
  0
POLYLINE
  8
COPPER
 66
1
 39
0
 10
0.000000
 20
0.000000
 30
0.000000
 70
0
  0
VERTEX
  8
COPPER
 39
0
 10
13.900000
 20
44.842194
 30
0.000000
 70
0
 42
0
  0
VERTEX
  8
COPPER
 39
0
 10
13.900000
 20
41.480000
 30
0.000000
 70
0
 42
0
  0
SEQEND
  0
POLYLINE
  8
COPPER
 66
1
 39
0
 10
0.000000
 20
0.000000
 30
0.000000
 70
4
 75
5
  0
VERTEX
  8
COPPER
 39
0
 10
15.750000
 20
49.480000
 30
0.000000
 70
16
 42
0
  0
VERTEX
  8
COPPER
 39
0
 10
13.900000
 20
44.842194
 30
0.000000
 70
8
 42
0
  0
VERTEX
  8
COPPER
 39
0
 10
14.059845
 20
44.977642
 30
0.000000
 70
8
 42
0
  0
VERTEX
  8
COPPER
 39
0
 10
14.250040
 20
45.156519
 30
0.000000
 70
8
 42
0
  0
VERTEX
  8
COPPER
 39
0
 10
14.429496
 20
45.346168
 30
0.000000
 70
8
 42
0
  0
VERTEX
  8
COPPER
 39
0
 10
14.597539
 20
45.545999
 30
0.000000
 70
8
 42
0
  0
VERTEX
  8
COPPER
 39
0
 10
14.753653
 20
45.755283
 30
0.000000
 70
8
 42
0
  0
VERTEX
  8
COPPER
 39
0
 10
14.897494
 20
45.973186
 30
0.000000
 70
8
 42
0
  0
VERTEX
  8
COPPER
 39
0
 10
15.028903
 20
46.198807
 30
0.000000
 70
8
 42
0
  0
VERTEX
  8
COPPER
 39
0
 10
15.147892
 20
46.431220
 30
0.000000
 70
8
 42
0
  0
VERTEX
  8
COPPER
 39
0
 10
15.254634
 20
46.669509
 30
0.000000
 70
8
 42
0
  0
VERTEX
  8
COPPER
 39
0
 10
15.349432
 20
46.912800
 30
0.000000
 70
8
 42
0
  0
VERTEX
  8
COPPER
 39
0
 10
15.432693
 20
47.160279
 30
0.000000
 70
8
 42
0
  0
VERTEX
  8
COPPER
 39
0
 10
15.504900
 20
47.411210
 30
0.000000
 70
8
 42
0
  0
VERTEX
  8
COPPER
 39
0
 10
15.566583
 20
47.664934
 30
0.000000
 70
8
 42
0
  0
VERTEX
  8
COPPER
 39
0
 10
15.618300
 20
47.920879
 30
0.000000
 70
8
 42
0
  0
VERTEX
  8
COPPER
 39
0
 10
15.660614
 20
48.178547
 30
0.000000
 70
8
 42
0
  0
VERTEX
  8
COPPER
 39
0
 10
15.694084
 20
48.437514
 30
0.000000
 70
8
 42
0
  0
VERTEX
  8
COPPER
 39
0
 10
15.719252
 20
48.697421
 30
0.000000
 70
8
 42
0
  0
VERTEX
  8
COPPER
 39
0
 10
15.736638
 20
48.957965
 30
0.000000
 70
8
 42
0
  0
VERTEX
  8
COPPER
 39
0
 10
15.746733
 20
49.218895
 30
0.000000
 70
8
 42
0
  0
VERTEX
  8
COPPER
 39
0
 10
15.750000
 20
49.480000
 30
0.000000
 70
8
 42
0
  0
VERTEX
  8
COPPER
 39
0
 10
15.750000
 20
46.338875
 30
0.000000
 70
16
 42
0
  0
VERTEX
  8
COPPER
 39
0
 10
13.900000
 20
44.842194
 30
0.000000
 70
16
 42
0
  0
SEQEND
  0
POLYLINE
  8
COPPER
 66
1
 39
0
 10
0.000000
 20
0.000000
 30
0.000000
 70
0
  0
VERTEX
  8
COPPER
 39
0
 10
14.250000
 20
49.480000
 30
0.000000
 70
0
 42
0
  0
VERTEX
  8
COPPER
 39
0
 10
15.750000
 20
49.480000
 30
0.000000
 70
0
 42
0
  0
SEQEND
  0
CIRCLE
  8
COPPER
 39
0
 10
13.500000
 20
41.980000
 30
0.000000
 40
0.5
  0
ENDSEC
  0
EOF
