  0
SECTION
  2
HEADER
  9
$ACADVER
  1
AC1009
  0
ENDSEC
  0
SECTION
  2
ENTITIES
  0
POLYLINE
  8
FR-4 (LOSSY)
 66
1
 39
0
 10
0.000000
 20
0.000000
 30
0.000000
 70
1
  0
VERTEX
  8
FR-4 (LOSSY)
 39
0
 10
0.000000
 20
-0.000000
 30
0.000000
 70
0
 42
0
  0
VERTEX
  8
FR-4 (LOSSY)
 39
0
 10
85.600000
 20
-0.000000
 30
0.000000
 70
0
 42
0
  0
VERTEX
  8
FR-4 (LOSSY)
 39
0
 10
85.600000
 20
53.980000
 30
0.000000
 70
0
 42
0
  0
VERTEX
  8
FR-4 (LOSSY)
 39
0
 10
0.000000
 20
53.980000
 30
0.000000
 70
0
 42
0
  0
SEQEND
  8
FR-4 (LOSSY)
  0
POLYLINE
  8
COPPER
 66
1
 39
0
 10
0.000000
 20
0.000000
 30
0.000000
 70
4
 75
5
  0
VERTEX
  8
COPPER
 39
0
 10
0.000000
 20
42.480000
 30
0.000000
 70
16
 42
0
  0
VERTEX
  8
COPPER
 39
0
 10
10.500000
 20
43.480000
 30
0.000000
 70
8
 42
0
  0
VERTEX
  8
COPPER
 39
0
 10
10.418567
 20
43.479985
 30
0.000000
 70
8
 42
0
  0
VERTEX
  8
COPPER
 39
0
 10
9.877768
 20
43.479095
 30
0.000000
 70
8
 42
0
  0
VERTEX
  8
COPPER
 39
0
 10
9.336973
 20
43.476750
 30
0.000000
 70
8
 42
0
  0
VERTEX
  8
COPPER
 39
0
 10
8.796188
 20
43.472822
 30
0.000000
 70
8
 42
0
  0
VERTEX
  8
COPPER
 39
0
 10
8.255418
 20
43.467162
 30
0.000000
 70
8
 42
0
  0
VERTEX
  8
COPPER
 39
0
 10
7.714671
 20
43.459598
 30
0.000000
 70
8
 42
0
  0
VERTEX
  8
COPPER
 39
0
 10
7.173958
 20
43.449925
 30
0.000000
 70
8
 42
0
  0
VERTEX
  8
COPPER
 39
0
 10
6.633292
 20
43.437902
 30
0.000000
 70
8
 42
0
  0
VERTEX
  8
COPPER
 39
0
 10
6.092692
 20
43.423235
 30
0.000000
 70
8
 42
0
  0
VERTEX
  8
COPPER
 39
0
 10
5.552181
 20
43.405565
 30
0.000000
 70
8
 42
0
  0
VERTEX
  8
COPPER
 39
0
 10
5.011795
 20
43.384444
 30
0.000000
 70
8
 42
0
  0
VERTEX
  8
COPPER
 39
0
 10
4.471581
 20
43.359302
 30
0.000000
 70
8
 42
0
  0
VERTEX
  8
COPPER
 39
0
 10
3.931611
 20
43.329389
 30
0.000000
 70
8
 42
0
  0
VERTEX
  8
COPPER
 39
0
 10
3.391993
 20
43.293697
 30
0.000000
 70
8
 42
0
  0
VERTEX
  8
COPPER
 39
0
 10
2.852902
 20
43.250802
 30
0.000000
 70
8
 42
0
  0
VERTEX
  8
COPPER
 39
0
 10
2.314638
 20
43.198583
 30
0.000000
 70
8
 42
0
  0
VERTEX
  8
COPPER
 39
0
 10
1.777770
 20
43.133638
 30
0.000000
 70
8
 42
0
  0
VERTEX
  8
COPPER
 39
0
 10
1.243545
 20
43.049848
 30
0.000000
 70
8
 42
0
  0
VERTEX
  8
COPPER
 39
0
 10
0.715472
 20
42.933933
 30
0.000000
 70
8
 42
0
  0
VERTEX
  8
COPPER
 39
0
 10
0.210866
 20
42.743343
 30
0.000000
 70
8
 42
0
  0
VERTEX
  8
COPPER
 39
0
 10
0.079480
 20
42.646437
 30
0.000000
 70
8
 42
0
  0
VERTEX
  8
COPPER
 39
0
 10
0.028547
 20
42.581565
 30
0.000000
 70
8
 42
0
  0
VERTEX
  8
COPPER
 39
0
 10
0.006508
 20
42.529172
 30
0.000000
 70
8
 42
0
  0
VERTEX
  8
COPPER
 39
0
 10
0.000000
 20
42.480000
 30
0.000000
 70
8
 42
0
  0
VERTEX
  8
COPPER
 39
0
 10
0.000000
 20
43.480000
 30
0.000000
 70
16
 42
0
  0
VERTEX
  8
COPPER
 39
0
 10
10.500000
 20
43.480000
 30
0.000000
 70
16
 42
0
  0
SEQEND
  0
POLYLINE
  8
COPPER
 66
1
 39
0
 10
0.000000
 20
0.000000
 30
0.000000
 70
0
  0
VERTEX
  8
COPPER
 39
0
 10
0.000000
 20
0.000000
 30
0.000000
 70
0
 42
0
  0
VERTEX
  8
COPPER
 39
0
 10
0.000000
 20
42.480000
 30
0.000000
 70
0
 42
0
  0
SEQEND
  0
POLYLINE
  8
COPPER
 66
1
 39
0
 10
0.000000
 20
0.000000
 30
0.000000
 70
0
  0
VERTEX
  8
COPPER
 39
0
 10
85.600000
 20
0.000000
 30
0.000000
 70
0
 42
0
  0
VERTEX
  8
COPPER
 39
0
 10
0.000000
 20
0.000000
 30
0.000000
 70
0
 42
0
  0
SEQEND
  0
POLYLINE
  8
COPPER
 66
1
 39
0
 10
0.000000
 20
0.000000
 30
0.000000
 70
0
  0
VERTEX
  8
COPPER
 39
0
 10
85.600000
 20
42.480000
 30
0.000000
 70
0
 42
0
  0
VERTEX
  8
COPPER
 39
0
 10
85.600000
 20
0.000000
 30
0.000000
 70
0
 42
0
  0
SEQEND
  0
POLYLINE
  8
COPPER
 66
1
 39
0
 10
0.000000
 20
0.000000
 30
0.000000
 70
0
  0
VERTEX
  8
COPPER
 39
0
 10
10.500000
 20
42.480000
 30
0.000000
 70
0
 42
0
  0
VERTEX
  8
COPPER
 39
0
 10
85.600000
 20
42.480000
 30
0.000000
 70
0
 42
0
  0
SEQEND
  0
POLYLINE
  8
COPPER
 66
1
 39
0
 10
0.000000
 20
0.000000
 30
0.000000
 70
0
  0
VERTEX
  8
COPPER
 39
0
 10
10.500000
 20
43.480000
 30
0.000000
 70
0
 42
0
  0
VERTEX
  8
COPPER
 39
0
 10
10.500000
 20
42.480000
 30
0.000000
 70
0
 42
0
  0
SEQEND
  0
CIRCLE
  8
COPPER
 39
0
 10
13.500000
 20
41.980000
 30
0.000000
 40
0.5
  0
ENDSEC
  0
EOF
